EBGaramondVF-UltraLight.ufo
<glyph name="numbersign" format="1">
  <advance width="484"/>
  <unicode hex="0023"/>
  <outline>
    <contour>
      <point x="67" y="-79" type="curve" smooth="yes"/>
      <point x="77" y="-79"/>
      <point x="85" y="-77"/>
      <point x="88" y="-67" type="curve" smooth="yes"/>
      <point x="136" y="130" type="line"/>
      <point x="269" y="136" type="line"/>
      <point x="222" y="-55" type="line"/>
      <point x="222" y="-59" type="line" smooth="yes"/>
      <point x="222" y="-64"/>
      <point x="224" y="-68"/>
      <point x="229" y="-68" type="curve" smooth="yes"/>
      <point x="238" y="-68"/>
      <point x="247" y="-66"/>
      <point x="249" y="-56" type="curve" smooth="yes"/>
      <point x="296" y="138" type="line"/>
      <point x="370" y="141" type="line" smooth="yes"/>
      <point x="385" y="142"/>
      <point x="390" y="158"/>
      <point x="390" y="165" type="curve" smooth="yes"/>
      <point x="390" y="170"/>
      <point x="384" y="173"/>
      <point x="377" y="173" type="curve"/>
      <point x="306" y="170" type="line"/>
      <point x="346" y="335" type="line"/>
      <point x="416" y="338" type="line" smooth="yes"/>
      <point x="430" y="338"/>
      <point x="436" y="355"/>
      <point x="436" y="362" type="curve" smooth="yes"/>
      <point x="436" y="367"/>
      <point x="432" y="370"/>
      <point x="423" y="370" type="curve"/>
      <point x="354" y="367" type="line"/>
      <point x="399" y="555" type="line"/>
      <point x="400" y="558"/>
      <point x="400" y="559"/>
      <point x="400" y="561" type="curve" smooth="yes"/>
      <point x="400" y="566"/>
      <point x="398" y="570"/>
      <point x="394" y="570" type="curve" smooth="yes"/>
      <point x="385" y="570"/>
      <point x="375" y="568"/>
      <point x="372" y="556" type="curve" smooth="yes"/>
      <point x="326" y="365" type="line"/>
      <point x="194" y="359" type="line"/>
      <point x="237" y="542" type="line"/>
      <point x="238" y="545"/>
      <point x="239" y="548"/>
      <point x="239" y="550" type="curve" smooth="yes"/>
      <point x="239" y="555"/>
      <point x="237" y="559"/>
      <point x="232" y="559" type="curve" smooth="yes"/>
      <point x="223" y="559"/>
      <point x="213" y="556"/>
      <point x="210" y="545" type="curve" smooth="yes"/>
      <point x="165" y="357" type="line"/>
      <point x="82" y="354" type="line" smooth="yes"/>
      <point x="70" y="353"/>
      <point x="65" y="337"/>
      <point x="65" y="330" type="curve" smooth="yes"/>
      <point x="65" y="324"/>
      <point x="72" y="322"/>
      <point x="79" y="322" type="curve"/>
      <point x="157" y="325" type="line"/>
      <point x="117" y="160" type="line"/>
      <point x="38" y="157" type="line" smooth="yes"/>
      <point x="25" y="157"/>
      <point x="19" y="141"/>
      <point x="19" y="134" type="curve" smooth="yes"/>
      <point x="19" y="129"/>
      <point x="26" y="125"/>
      <point x="33" y="125" type="curve"/>
      <point x="108" y="128" type="line"/>
      <point x="61" y="-64" type="line"/>
      <point x="60" y="-70" type="line" smooth="yes"/>
      <point x="60" y="-75"/>
      <point x="63" y="-79"/>
    </contour>
    <contour>
      <point x="145" y="162" type="line"/>
      <point x="185" y="327" type="line"/>
      <point x="318" y="333" type="line"/>
      <point x="278" y="168" type="line"/>
    </contour>
  </outline>
</glyph>
<glyph name="ampersand" format="1">
  <advance width="782"/>
  <unicode hex="0026"/>
  <outline>
    <contour>
      <point x="220" y="-15" type="curve" smooth="yes"/>
      <point x="316" y="-15"/>
      <point x="361" y="51"/>
      <point x="426" y="119" type="curve"/>
      <point x="432" y="125" type="line"/>
      <point x="447" y="101" type="line" smooth="yes"/>
      <point x="497" y="23"/>
      <point x="519" y="-15"/>
      <point x="588" y="-15" type="curve" smooth="yes"/>
      <point x="645" y="-15"/>
      <point x="720" y="37"/>
      <point x="720" y="54" type="curve" smooth="yes"/>
      <point x="720" y="60"/>
      <point x="718" y="63"/>
      <point x="711" y="63" type="curve" smooth="yes"/>
      <point x="706" y="63"/>
      <point x="700" y="60"/>
      <point x="693" y="55" type="curve" smooth="yes"/>
      <point x="673" y="44"/>
      <point x="648" y="36"/>
      <point x="615" y="36" type="curve" smooth="yes"/>
      <point x="565" y="36"/>
      <point x="512" y="83"/>
      <point x="482" y="119" type="curve" smooth="yes"/>
      <point x="454" y="148" type="line"/>
      <point x="454" y="148"/>
      <point x="647" y="348"/>
      <point x="660" y="359" type="curve" smooth="yes"/>
      <point x="677" y="373"/>
      <point x="703" y="388"/>
      <point x="735" y="390" type="curve"/>
      <point x="745" y="390"/>
      <point x="761" y="398"/>
      <point x="761" y="404" type="curve" smooth="yes"/>
      <point x="761" y="407"/>
      <point x="752" y="412"/>
      <point x="749" y="412" type="curve" smooth="yes"/>
      <point x="724" y="412"/>
      <point x="681" y="400"/>
      <point x="650" y="400" type="curve" smooth="yes"/>
      <point x="634" y="400"/>
      <point x="583" y="404"/>
      <point x="577" y="404" type="curve" smooth="yes"/>
      <point x="573" y="404"/>
      <point x="554" y="403"/>
      <point x="554" y="395" type="curve" smooth="yes"/>
      <point x="554" y="391"/>
      <point x="563" y="388"/>
      <point x="571" y="386" type="curve"/>
      <point x="598" y="382"/>
      <point x="606" y="369"/>
      <point x="606" y="361" type="curve" smooth="yes"/>
      <point x="606" y="342"/>
      <point x="514" y="231"/>
      <point x="464" y="180" type="curve" smooth="yes"/>
      <point x="445" y="160" type="line"/>
      <point x="431" y="180" type="line" smooth="yes"/>
      <point x="389" y="235"/>
      <point x="344" y="277"/>
      <point x="291" y="332" type="curve" smooth="yes"/>
      <point x="278" y="346" type="line"/>
      <point x="292" y="352" type="line" smooth="yes"/>
      <point x="349" y="374"/>
      <point x="377" y="426"/>
      <point x="376" y="477" type="curve" smooth="yes"/>
      <point x="376" y="538"/>
      <point x="343" y="599"/>
      <point x="269" y="599" type="curve" smooth="yes"/>
      <point x="211" y="599"/>
      <point x="150" y="554"/>
      <point x="150" y="484" type="curve" smooth="yes"/>
      <point x="150" y="425"/>
      <point x="199" y="389"/>
      <point x="218" y="367" type="curve"/>
      <point x="236" y="349" type="line"/>
      <point x="215" y="340" type="line" smooth="yes"/>
      <point x="111" y="294"/>
      <point x="39" y="234"/>
      <point x="39" y="127" type="curve" smooth="yes"/>
      <point x="39" y="45"/>
      <point x="113" y="-15"/>
    </contour>
    <contour>
      <point x="231" y="19" type="curve" smooth="yes"/>
      <point x="142" y="19"/>
      <point x="78" y="73"/>
      <point x="78" y="142" type="curve" smooth="yes"/>
      <point x="78" y="205"/>
      <point x="96" y="284"/>
      <point x="219" y="326" type="curve" smooth="yes"/>
      <point x="248" y="336" type="line"/>
      <point x="262" y="321" type="line" smooth="yes"/>
      <point x="321" y="259"/>
      <point x="372" y="208"/>
      <point x="409" y="158" type="curve" smooth="yes"/>
      <point x="424" y="138" type="line"/>
      <point x="413" y="126" type="line" smooth="yes"/>
      <point x="354" y="60"/>
      <point x="305" y="19"/>
    </contour>
    <contour>
      <point x="268" y="360" type="line"/>
      <point x="251" y="378" type="line" smooth="yes"/>
      <point x="196" y="435"/>
      <point x="181" y="457"/>
      <point x="181" y="499" type="curve" smooth="yes"/>
      <point x="181" y="550"/>
      <point x="223" y="581"/>
      <point x="267" y="581" type="curve" smooth="yes"/>
      <point x="319" y="581"/>
      <point x="343" y="531"/>
      <point x="343" y="479" type="curve" smooth="yes"/>
      <point x="343" y="435"/>
      <point x="327" y="387"/>
      <point x="286" y="368" type="curve" smooth="yes"/>
    </contour>
  </outline>
</glyph>
<glyph name="asterisk" format="1">
  <advance width="351"/>
  <unicode hex="002A"/>
  <outline>
    <contour>
      <point x="189" y="372" type="curve" smooth="yes"/>
      <point x="194" y="372"/>
      <point x="195" y="378"/>
      <point x="195" y="385" type="curve"/>
      <point x="195" y="426"/>
      <point x="193" y="464"/>
      <point x="191" y="501" type="curve"/>
      <point x="227" y="487"/>
      <point x="264" y="472"/>
      <point x="302" y="458" type="curve" smooth="yes"/>
      <point x="306" y="457"/>
      <point x="316" y="457"/>
      <point x="316" y="461" type="curve" smooth="yes"/>
      <point x="316" y="463"/>
      <point x="313" y="467"/>
      <point x="310" y="469" type="curve"/>
      <point x="269" y="489"/>
      <point x="236" y="505"/>
      <point x="201" y="523" type="curve"/>
      <point x="296" y="595" type="line"/>
      <point x="300" y="598"/>
      <point x="302" y="601"/>
      <point x="302" y="604" type="curve" smooth="yes"/>
      <point x="302" y="607"/>
      <point x="300" y="610"/>
      <point x="296" y="610" type="curve" smooth="yes"/>
      <point x="294" y="610"/>
      <point x="290" y="608"/>
      <point x="285" y="605" type="curve"/>
      <point x="249" y="585"/>
      <point x="217" y="565"/>
      <point x="185" y="544" type="curve"/>
      <point x="168" y="660" type="line" smooth="yes"/>
      <point x="167" y="665"/>
      <point x="166" y="670"/>
      <point x="162" y="670" type="curve" smooth="yes"/>
      <point x="158" y="670"/>
      <point x="157" y="664"/>
      <point x="157" y="657" type="curve" smooth="yes"/>
      <point x="157" y="617"/>
      <point x="159" y="578"/>
      <point x="161" y="541" type="curve"/>
      <point x="125" y="557"/>
      <point x="88" y="572"/>
      <point x="50" y="586" type="curve"/>
      <point x="46" y="587"/>
      <point x="36" y="588"/>
      <point x="36" y="582" type="curve" smooth="yes"/>
      <point x="36" y="578"/>
      <point x="41" y="575"/>
      <point x="45" y="573" type="curve"/>
      <point x="82" y="554"/>
      <point x="117" y="536"/>
      <point x="151" y="519" type="curve"/>
      <point x="57" y="448" type="line"/>
      <point x="53" y="445"/>
      <point x="52" y="443"/>
      <point x="52" y="439" type="curve" smooth="yes"/>
      <point x="52" y="436"/>
      <point x="53" y="434"/>
      <point x="58" y="434" type="curve" smooth="yes"/>
      <point x="60" y="434"/>
      <point x="64" y="436"/>
      <point x="67" y="437" type="curve"/>
      <point x="99" y="463"/>
      <point x="133" y="478"/>
      <point x="167" y="498" type="curve"/>
      <point x="184" y="382" type="line" smooth="yes"/>
      <point x="185" y="377"/>
      <point x="186" y="372"/>
    </contour>
  </outline>
</glyph>
<glyph name="comma" format="1">
  <advance width="199"/>
  <unicode hex="002C"/>
  <outline>
    <contour>
      <point x="36" y="-147" type="curve" smooth="yes"/>
      <point x="87" y="-147"/>
      <point x="168" y="-93"/>
      <point x="168" y="7" type="curve" smooth="yes"/>
      <point x="168" y="69"/>
      <point x="128" y="112"/>
      <point x="81" y="112" type="curve" smooth="yes"/>
      <point x="61" y="112"/>
      <point x="43" y="98"/>
      <point x="43" y="79" type="curve" smooth="yes"/>
      <point x="43" y="61"/>
      <point x="57" y="49"/>
      <point x="79" y="44" type="curve" smooth="yes"/>
      <point x="114" y="39"/>
      <point x="142" y="17"/>
      <point x="142" y="-22" type="curve" smooth="yes"/>
      <point x="142" y="-85"/>
      <point x="87" y="-132"/>
      <point x="32" y="-133" type="curve" smooth="yes"/>
      <point x="23" y="-133"/>
      <point x="18" y="-136"/>
      <point x="18" y="-140" type="curve" smooth="yes"/>
      <point x="18" y="-144"/>
      <point x="24" y="-147"/>
    </contour>
  </outline>
</glyph>
<glyph name="one" format="1">
  <advance width="417"/>
  <unicode hex="0031"/>
  <outline>
    <contour>
      <point x="81" y="-3" type="curve" smooth="yes"/>
      <point x="128" y="-3"/>
      <point x="168" y="2"/>
      <point x="216" y="2" type="curve" smooth="yes"/>
      <point x="263" y="2"/>
      <point x="299" y="-3"/>
      <point x="348" y="-3" type="curve" smooth="yes"/>
      <point x="356" y="-3"/>
      <point x="361" y="1"/>
      <point x="361" y="5" type="curve" smooth="yes"/>
      <point x="361" y="9"/>
      <point x="353" y="13"/>
      <point x="344" y="15" type="curve" smooth="yes"/>
      <point x="259" y="29"/>
      <point x="235" y="32"/>
      <point x="235" y="88" type="curve" smooth="yes"/>
      <point x="235" y="557" type="line" smooth="yes"/>
      <point x="235" y="585"/>
      <point x="236" y="608"/>
      <point x="239" y="628" type="curve"/>
      <point x="240" y="633"/>
      <point x="233" y="637"/>
      <point x="227" y="637" type="curve" smooth="yes"/>
      <point x="225" y="637"/>
      <point x="222" y="637"/>
      <point x="216" y="626" type="curve" smooth="yes"/>
      <point x="186" y="590"/>
      <point x="159" y="573"/>
      <point x="102" y="569" type="curve" smooth="yes"/>
      <point x="91" y="568"/>
      <point x="82" y="563"/>
      <point x="82" y="556" type="curve" smooth="yes"/>
      <point x="82" y="548"/>
      <point x="95" y="544"/>
      <point x="108" y="544" type="curve" smooth="yes"/>
      <point x="168" y="542"/>
      <point x="196" y="534"/>
      <point x="196" y="490" type="curve" smooth="yes"/>
      <point x="196" y="96" type="line" smooth="yes"/>
      <point x="196" y="34"/>
      <point x="162" y="28"/>
      <point x="83" y="16" type="curve" smooth="yes"/>
      <point x="74" y="14"/>
      <point x="67" y="9"/>
      <point x="67" y="6" type="curve" smooth="yes"/>
      <point x="67" y="2"/>
      <point x="71" y="-3"/>
    </contour>
  </outline>
</glyph>
<glyph name="two" format="1">
  <advance width="417"/>
  <unicode hex="0032"/>
  <outline>
    <contour>
      <point x="373" y="-3" type="curve" smooth="yes"/>
      <point x="380" y="-3"/>
      <point x="391" y="0"/>
      <point x="395" y="21" type="curve" smooth="yes"/>
      <point x="406" y="71"/>
      <point x="426" y="125"/>
      <point x="426" y="135" type="curve" smooth="yes"/>
      <point x="426" y="140"/>
      <point x="426" y="147"/>
      <point x="421" y="147" type="curve" smooth="yes"/>
      <point x="413" y="147"/>
      <point x="408" y="137"/>
      <point x="404" y="128" type="curve" smooth="yes"/>
      <point x="382" y="77"/>
      <point x="370" y="67"/>
      <point x="309" y="64" type="curve" smooth="yes"/>
      <point x="258" y="62"/>
      <point x="235" y="61"/>
      <point x="196" y="61" type="curve" smooth="yes"/>
      <point x="157" y="61"/>
      <point x="114" y="61"/>
      <point x="92" y="64" type="curve" smooth="yes"/>
      <point x="83" y="65"/>
      <point x="77" y="66"/>
      <point x="77" y="71" type="curve" smooth="yes"/>
      <point x="97" y="92"/>
      <point x="208" y="194"/>
      <point x="251" y="243" type="curve" smooth="yes"/>
      <point x="317" y="312"/>
      <point x="362" y="395"/>
      <point x="362" y="475" type="curve" smooth="yes"/>
      <point x="362" y="561"/>
      <point x="310" y="630"/>
      <point x="221" y="630" type="curve" smooth="yes"/>
      <point x="121" y="630"/>
      <point x="62" y="534"/>
      <point x="53" y="493" type="curve" smooth="yes"/>
      <point x="52" y="485"/>
      <point x="50" y="470"/>
      <point x="53" y="470" type="curve" smooth="yes"/>
      <point x="56" y="470"/>
      <point x="58" y="477"/>
      <point x="61" y="483" type="curve"/>
      <point x="92" y="535"/>
      <point x="146" y="566"/>
      <point x="204" y="566" type="curve" smooth="yes"/>
      <point x="272" y="566"/>
      <point x="319" y="520"/>
      <point x="319" y="449" type="curve" smooth="yes"/>
      <point x="319" y="359"/>
      <point x="270" y="265"/>
      <point x="191" y="192" type="curve" smooth="yes"/>
      <point x="18" y="28" type="line" smooth="yes"/>
      <point x="12" y="22"/>
      <point x="10" y="21"/>
      <point x="10" y="15" type="curve" smooth="yes"/>
      <point x="10" y="9"/>
      <point x="26" y="-2"/>
      <point x="31" y="-2" type="curve" smooth="yes"/>
      <point x="50" y="-2"/>
      <point x="190" y="3"/>
      <point x="240" y="3" type="curve" smooth="yes"/>
      <point x="288" y="3"/>
      <point x="353" y="-3"/>
    </contour>
  </outline>
</glyph>
<glyph name="three" format="1">
  <advance width="417"/>
  <unicode hex="0033"/>
  <outline>
    <contour>
      <point x="130" y="-38" type="curve" smooth="yes"/>
      <point x="256" y="-38"/>
      <point x="388" y="42"/>
      <point x="388" y="188" type="curve" smooth="yes"/>
      <point x="388" y="277"/>
      <point x="320" y="349"/>
      <point x="241" y="349" type="curve" smooth="yes"/>
      <point x="237" y="349"/>
      <point x="237" y="353"/>
      <point x="240" y="355" type="curve"/>
      <point x="314" y="395"/>
      <point x="344" y="455"/>
      <point x="344" y="503" type="curve" smooth="yes"/>
      <point x="344" y="577"/>
      <point x="288" y="630"/>
      <point x="216" y="630" type="curve" smooth="yes"/>
      <point x="96" y="630"/>
      <point x="46" y="534"/>
      <point x="46" y="500" type="curve" smooth="yes"/>
      <point x="46" y="490"/>
      <point x="49" y="483"/>
      <point x="55" y="483" type="curve" smooth="yes"/>
      <point x="63" y="483"/>
      <point x="79" y="572"/>
      <point x="194" y="572" type="curve" smooth="yes"/>
      <point x="256" y="572"/>
      <point x="301" y="533"/>
      <point x="301" y="469" type="curve" smooth="yes"/>
      <point x="301" y="389"/>
      <point x="206" y="336"/>
      <point x="169" y="328" type="curve" smooth="yes"/>
      <point x="154" y="325"/>
      <point x="142" y="314"/>
      <point x="137" y="299" type="curve" smooth="yes"/>
      <point x="135" y="292"/>
      <point x="146" y="288"/>
      <point x="155" y="293" type="curve" smooth="yes"/>
      <point x="178" y="307"/>
      <point x="208" y="309"/>
      <point x="223" y="309" type="curve" smooth="yes"/>
      <point x="304" y="309"/>
      <point x="345" y="227"/>
      <point x="345" y="149" type="curve" smooth="yes"/>
      <point x="345" y="62"/>
      <point x="278" y="-9"/>
      <point x="192" y="-9" type="curve" smooth="yes"/>
      <point x="153" y="-9"/>
      <point x="130" y="12"/>
      <point x="113" y="28" type="curve" smooth="yes"/>
      <point x="100" y="39"/>
      <point x="88" y="50"/>
      <point x="72" y="50" type="curve" smooth="yes"/>
      <point x="57" y="51"/>
      <point x="27" y="19"/>
      <point x="27" y="5" type="curve" smooth="yes"/>
      <point x="27" y="-11"/>
      <point x="87" y="-38"/>
    </contour>
  </outline>
</glyph>
<glyph name="four" format="1">
  <advance width="417"/>
  <unicode hex="0034"/>
  <outline>
    <contour>
      <point x="213" y="-3" type="curve" smooth="yes"/>
      <point x="260" y="-3"/>
      <point x="269" y="2"/>
      <point x="312" y="2" type="curve" smooth="yes"/>
      <point x="353" y="2"/>
      <point x="361" y="-3"/>
      <point x="409" y="-3" type="curve" smooth="yes"/>
      <point x="416" y="-3"/>
      <point x="422" y="1"/>
      <point x="422" y="5" type="curve" smooth="yes"/>
      <point x="422" y="10"/>
      <point x="411" y="14"/>
      <point x="403" y="16" type="curve" smooth="yes"/>
      <point x="347" y="23"/>
      <point x="335" y="32"/>
      <point x="335" y="67" type="curve" smooth="yes"/>
      <point x="335" y="182" type="line" smooth="yes"/>
      <point x="335" y="183"/>
      <point x="343" y="187"/>
      <point x="348" y="188" type="curve"/>
      <point x="357" y="189"/>
      <point x="368" y="190"/>
      <point x="380" y="190" type="curve" smooth="yes"/>
      <point x="397" y="190"/>
      <point x="416" y="189"/>
      <point x="431" y="189" type="curve" smooth="yes"/>
      <point x="435" y="189"/>
      <point x="453" y="201"/>
      <point x="453" y="217" type="curve" smooth="yes"/>
      <point x="453" y="223"/>
      <point x="448" y="227"/>
      <point x="441" y="227" type="curve"/>
      <point x="419" y="226"/>
      <point x="400" y="225"/>
      <point x="380" y="225" type="curve" smooth="yes"/>
      <point x="368" y="225"/>
      <point x="355" y="225"/>
      <point x="339" y="226" type="curve"/>
      <point x="336" y="226"/>
      <point x="334" y="229"/>
      <point x="334" y="232" type="curve" smooth="yes"/>
      <point x="334" y="365" type="line" smooth="yes"/>
      <point x="334" y="407"/>
      <point x="334" y="429"/>
      <point x="325" y="429" type="curve" smooth="yes"/>
      <point x="321" y="429"/>
      <point x="308" y="427"/>
      <point x="299" y="416" type="curve"/>
      <point x="295" y="412"/>
      <point x="294" y="408"/>
      <point x="294" y="394" type="curve" smooth="yes"/>
      <point x="294" y="235" type="line" smooth="yes"/>
      <point x="294" y="231"/>
      <point x="287" y="227"/>
      <point x="282" y="227" type="curve" smooth="yes"/>
      <point x="79" y="227" type="line" smooth="yes"/>
      <point x="75" y="227"/>
      <point x="77" y="233"/>
      <point x="79" y="236" type="curve" smooth="yes"/>
      <point x="365" y="630" type="line"/>
      <point x="367" y="632"/>
      <point x="371" y="642"/>
      <point x="366" y="642" type="curve" smooth="yes"/>
      <point x="353" y="642" type="line" smooth="yes"/>
      <point x="345" y="642"/>
      <point x="335" y="629"/>
      <point x="327" y="617" type="curve" smooth="yes"/>
      <point x="51" y="235" type="line" smooth="yes"/>
      <point x="38" y="217"/>
      <point x="34" y="215"/>
      <point x="15" y="192" type="curve"/>
      <point x="14" y="191"/>
      <point x="14" y="190"/>
      <point x="14" y="189" type="curve" smooth="yes"/>
      <point x="14" y="185"/>
      <point x="19" y="179"/>
      <point x="24" y="179" type="curve" smooth="yes"/>
      <point x="120" y="179"/>
      <point x="191" y="186"/>
      <point x="279" y="186" type="curve" smooth="yes"/>
      <point x="281" y="186"/>
      <point x="294" y="183"/>
      <point x="294" y="177" type="curve" smooth="yes"/>
      <point x="294" y="65" type="line" smooth="yes"/>
      <point x="294" y="34"/>
      <point x="281" y="20"/>
      <point x="216" y="16" type="curve" smooth="yes"/>
      <point x="208" y="15"/>
      <point x="198" y="12"/>
      <point x="198" y="7" type="curve" smooth="yes"/>
      <point x="198" y="0"/>
      <point x="207" y="-3"/>
    </contour>
  </outline>
</glyph>
<glyph name="five" format="1">
  <advance width="417"/>
  <unicode hex="0035"/>
  <outline>
    <contour>
      <point x="89" y="-38" type="curve" smooth="yes"/>
      <point x="171" y="-38"/>
      <point x="240" y="-17"/>
      <point x="292" y="19" type="curve" smooth="yes"/>
      <point x="354" y="62"/>
      <point x="391" y="125"/>
      <point x="391" y="196" type="curve" smooth="yes"/>
      <point x="391" y="268"/>
      <point x="354" y="313"/>
      <point x="283" y="350" type="curve" smooth="yes"/>
      <point x="237" y="374"/>
      <point x="168" y="396"/>
      <point x="95" y="414" type="curve" smooth="yes"/>
      <point x="82" y="417"/>
      <point x="80" y="424"/>
      <point x="81" y="432" type="curve"/>
      <point x="82" y="447"/>
      <point x="115" y="525"/>
      <point x="130" y="527" type="curve" smooth="yes"/>
      <point x="161" y="531"/>
      <point x="264" y="539"/>
      <point x="318" y="545" type="curve" smooth="yes"/>
      <point x="336" y="547"/>
      <point x="346" y="557"/>
      <point x="356" y="577" type="curve" smooth="yes"/>
      <point x="362" y="587"/>
      <point x="368" y="599"/>
      <point x="374" y="610" type="curve" smooth="yes"/>
      <point x="379" y="619"/>
      <point x="373" y="628"/>
      <point x="363" y="627" type="curve" smooth="yes"/>
      <point x="282" y="619"/>
      <point x="211" y="607"/>
      <point x="148" y="592" type="curve" smooth="yes"/>
      <point x="126" y="587"/>
      <point x="113" y="576"/>
      <point x="106" y="556" type="curve" smooth="yes"/>
      <point x="91" y="512"/>
      <point x="59" y="454"/>
      <point x="59" y="418" type="curve" smooth="yes"/>
      <point x="59" y="400"/>
      <point x="62" y="388"/>
      <point x="81" y="378" type="curve"/>
      <point x="263" y="332"/>
      <point x="350" y="281"/>
      <point x="350" y="191" type="curve" smooth="yes"/>
      <point x="350" y="67"/>
      <point x="281" y="-10"/>
      <point x="88" y="-17" type="curve" smooth="yes"/>
      <point x="69" y="-18"/>
      <point x="51" y="-23"/>
      <point x="51" y="-30" type="curve" smooth="yes"/>
      <point x="51" y="-36"/>
      <point x="74" y="-38"/>
    </contour>
  </outline>
</glyph>
<glyph name="six" format="1">
  <advance width="417"/>
  <unicode hex="0036"/>
  <outline>
    <contour>
      <point x="206" y="-16" type="curve" smooth="yes"/>
      <point x="297" y="-16"/>
      <point x="378" y="58"/>
      <point x="378" y="179" type="curve" smooth="yes"/>
      <point x="378" y="262"/>
      <point x="323" y="313"/>
      <point x="262" y="313" type="curve" smooth="yes"/>
      <point x="234" y="313"/>
      <point x="199" y="297"/>
      <point x="180" y="284" type="curve" smooth="yes"/>
      <point x="169" y="277"/>
      <point x="161" y="271"/>
      <point x="151" y="261" type="curve" smooth="yes"/>
      <point x="144" y="253"/>
      <point x="145" y="245"/>
      <point x="158" y="252" type="curve" smooth="yes"/>
      <point x="183" y="265"/>
      <point x="212" y="273"/>
      <point x="243" y="273" type="curve" smooth="yes"/>
      <point x="298" y="273"/>
      <point x="338" y="212"/>
      <point x="338" y="141" type="curve" smooth="yes"/>
      <point x="338" y="50"/>
      <point x="286" y="8"/>
      <point x="224" y="9" type="curve" smooth="yes"/>
      <point x="159" y="10"/>
      <point x="80" y="72"/>
      <point x="78" y="187" type="curve" smooth="yes"/>
      <point x="75" y="304"/>
      <point x="111" y="422"/>
      <point x="187" y="511" type="curve" smooth="yes"/>
      <point x="227" y="557"/>
      <point x="283" y="594"/>
      <point x="349" y="621" type="curve" smooth="yes"/>
      <point x="356" y="624"/>
      <point x="368" y="627"/>
      <point x="374" y="637" type="curve" smooth="yes"/>
      <point x="376" y="639"/>
      <point x="369" y="645"/>
      <point x="357" y="642" type="curve" smooth="yes"/>
      <point x="283" y="619"/>
      <point x="222" y="579"/>
      <point x="174" y="527" type="curve" smooth="yes"/>
      <point x="85" y="439"/>
      <point x="34" y="319"/>
      <point x="34" y="193" type="curve" smooth="yes"/>
      <point x="34" y="53"/>
      <point x="119" y="-16"/>
    </contour>
  </outline>
</glyph>
<glyph name="seven" format="1">
  <advance width="497"/>
  <unicode hex="0037"/>
  <outline>
    <contour>
      <point x="114" y="-32" type="curve" smooth="yes"/>
      <point x="118" y="-32"/>
      <point x="128" y="-16"/>
      <point x="134" y="-5" type="curve" smooth="yes"/>
      <point x="445" y="538" type="line" smooth="yes"/>
      <point x="455" y="555"/>
      <point x="484" y="592"/>
      <point x="484" y="608" type="curve" smooth="yes"/>
      <point x="484" y="613"/>
      <point x="481" y="621"/>
      <point x="478" y="621" type="curve" smooth="yes"/>
      <point x="459" y="618"/>
      <point x="343" y="616"/>
      <point x="241" y="616" type="curve" smooth="yes"/>
      <point x="193" y="616"/>
      <point x="170" y="617"/>
      <point x="139" y="617" type="curve" smooth="yes"/>
      <point x="95" y="617"/>
      <point x="55" y="626"/>
      <point x="52" y="626" type="curve" smooth="yes"/>
      <point x="49" y="626"/>
      <point x="42" y="624"/>
      <point x="41" y="615" type="curve" smooth="yes"/>
      <point x="38" y="596"/>
      <point x="32" y="562"/>
      <point x="24" y="539" type="curve"/>
      <point x="23" y="535"/>
      <point x="21" y="527"/>
      <point x="21" y="522" type="curve" smooth="yes"/>
      <point x="21" y="517"/>
      <point x="22" y="511"/>
      <point x="26" y="511" type="curve" smooth="yes"/>
      <point x="33" y="511"/>
      <point x="40" y="526"/>
      <point x="44" y="536" type="curve" smooth="yes"/>
      <point x="59" y="574"/>
      <point x="82" y="582"/>
      <point x="109" y="582" type="curve" smooth="yes"/>
      <point x="454" y="582" type="line"/>
      <point x="450" y="593" type="line"/>
      <point x="127" y="35" type="line" smooth="yes"/>
      <point x="118" y="19"/>
      <point x="99" y="-10"/>
      <point x="99" y="-14" type="curve" smooth="yes"/>
      <point x="99" y="-24"/>
      <point x="103" y="-32"/>
    </contour>
  </outline>
</glyph>
<glyph name="eight" format="1">
  <advance width="417"/>
  <unicode hex="0038"/>
  <outline>
    <contour>
      <point x="200" y="-14" type="curve" smooth="yes"/>
      <point x="284" y="-14"/>
      <point x="363" y="56"/>
      <point x="363" y="164" type="curve" smooth="yes"/>
      <point x="363" y="241"/>
      <point x="327" y="289"/>
      <point x="263" y="338" type="curve" smooth="yes"/>
      <point x="254" y="345"/>
      <point x="253" y="347"/>
      <point x="267" y="359" type="curve" smooth="yes"/>
      <point x="284" y="373"/>
      <point x="296" y="382"/>
      <point x="309" y="395" type="curve" smooth="yes"/>
      <point x="330" y="418"/>
      <point x="346" y="446"/>
      <point x="346" y="496" type="curve" smooth="yes"/>
      <point x="346" y="577"/>
      <point x="283" y="630"/>
      <point x="217" y="630" type="curve" smooth="yes"/>
      <point x="143" y="630"/>
      <point x="68" y="572"/>
      <point x="68" y="479" type="curve" smooth="yes"/>
      <point x="68" y="404"/>
      <point x="102" y="358"/>
      <point x="160" y="309" type="curve" smooth="yes"/>
      <point x="168" y="303"/>
      <point x="169" y="301"/>
      <point x="162" y="296" type="curve" smooth="yes"/>
      <point x="119" y="269"/>
      <point x="54" y="229"/>
      <point x="54" y="141" type="curve" smooth="yes"/>
      <point x="54" y="49"/>
      <point x="124" y="-14"/>
    </contour>
    <contour>
      <point x="213" y="7" type="curve" smooth="yes"/>
      <point x="138" y="7"/>
      <point x="95" y="81"/>
      <point x="95" y="153" type="curve" smooth="yes"/>
      <point x="95" y="219"/>
      <point x="115" y="251"/>
      <point x="161" y="286" type="curve" smooth="yes"/>
      <point x="167" y="290"/>
      <point x="171" y="292"/>
      <point x="174" y="292" type="curve" smooth="yes"/>
      <point x="180" y="292"/>
      <point x="187" y="288"/>
      <point x="195" y="282" type="curve"/>
      <point x="257" y="241"/>
      <point x="322" y="183"/>
      <point x="322" y="119" type="curve" smooth="yes"/>
      <point x="322" y="59"/>
      <point x="275" y="7"/>
    </contour>
    <contour>
      <point x="248" y="356" type="curve"/>
      <point x="244" y="353"/>
      <point x="237" y="356"/>
      <point x="233" y="359" type="curve"/>
      <point x="159" y="418"/>
      <point x="107" y="434"/>
      <point x="107" y="512" type="curve" smooth="yes"/>
      <point x="107" y="568"/>
      <point x="165" y="612"/>
      <point x="214" y="612" type="curve" smooth="yes"/>
      <point x="276" y="612"/>
      <point x="306" y="564"/>
      <point x="306" y="506" type="curve" smooth="yes"/>
      <point x="306" y="444"/>
      <point x="297" y="395"/>
    </contour>
  </outline>
</glyph>
<glyph name="equal" format="1">
  <advance width="566"/>
  <unicode hex="003D"/>
  <outline>
    <contour>
      <point x="64" y="323" type="curve" smooth="yes"/>
      <point x="484" y="323" type="line" smooth="yes"/>
      <point x="502" y="323"/>
      <point x="516" y="339"/>
      <point x="516" y="349" type="curve" smooth="yes"/>
      <point x="516" y="353"/>
      <point x="509" y="356"/>
      <point x="502" y="356" type="curve" smooth="yes"/>
      <point x="74" y="356" type="line" smooth="yes"/>
      <point x="56" y="356"/>
      <point x="50" y="337"/>
      <point x="50" y="331" type="curve" smooth="yes"/>
      <point x="50" y="327"/>
      <point x="57" y="323"/>
    </contour>
    <contour>
      <point x="64" y="152" type="curve" smooth="yes"/>
      <point x="484" y="152" type="line" smooth="yes"/>
      <point x="502" y="152"/>
      <point x="516" y="166"/>
      <point x="516" y="178" type="curve" smooth="yes"/>
      <point x="516" y="182"/>
      <point x="509" y="185"/>
      <point x="502" y="185" type="curve" smooth="yes"/>
      <point x="74" y="185" type="line" smooth="yes"/>
      <point x="56" y="185"/>
      <point x="50" y="166"/>
      <point x="50" y="160" type="curve" smooth="yes"/>
      <point x="50" y="156"/>
      <point x="57" y="152"/>
    </contour>
  </outline>
</glyph>
<glyph name="at" format="1">
  <advance width="776"/>
  <unicode hex="0040"/>
  <outline>
    <contour>
      <point x="396" y="-131" type="curve" smooth="yes"/>
      <point x="507" y="-131"/>
      <point x="655" y="-41"/>
      <point x="655" y="-17" type="curve" smooth="yes"/>
      <point x="655" y="-11"/>
      <point x="651" y="-8"/>
      <point x="645" y="-8" type="curve" smooth="yes"/>
      <point x="642" y="-8"/>
      <point x="637" y="-12"/>
      <point x="633" y="-15" type="curve" smooth="yes"/>
      <point x="571" y="-67"/>
      <point x="475" y="-104"/>
      <point x="407" y="-104" type="curve" smooth="yes"/>
      <point x="248" y="-104"/>
      <point x="87" y="7"/>
      <point x="87" y="188" type="curve" smooth="yes"/>
      <point x="87" y="371"/>
      <point x="239" y="480"/>
      <point x="408" y="480" type="curve" smooth="yes"/>
      <point x="569" y="480"/>
      <point x="684" y="365"/>
      <point x="684" y="228" type="curve" smooth="yes"/>
      <point x="684" y="138"/>
      <point x="605" y="79"/>
      <point x="509" y="79" type="curve" smooth="yes"/>
      <point x="492" y="79"/>
      <point x="490" y="93"/>
      <point x="490" y="108" type="curve" smooth="yes"/>
      <point x="490" y="117"/>
      <point x="491" y="126"/>
      <point x="493" y="135" type="curve"/>
      <point x="516" y="272" type="line" smooth="yes"/>
      <point x="518" y="288"/>
      <point x="528" y="328"/>
      <point x="536" y="352" type="curve"/>
      <point x="538" y="356"/>
      <point x="526" y="358"/>
      <point x="522" y="358" type="curve" smooth="yes"/>
      <point x="516" y="358"/>
      <point x="512" y="337"/>
      <point x="496" y="337" type="curve" smooth="yes"/>
      <point x="492" y="337"/>
      <point x="486" y="340"/>
      <point x="475" y="345" type="curve" smooth="yes"/>
      <point x="465" y="350"/>
      <point x="442" y="355"/>
      <point x="422" y="355" type="curve" smooth="yes"/>
      <point x="331" y="355"/>
      <point x="246" y="279"/>
      <point x="246" y="156" type="curve" smooth="yes"/>
      <point x="246" y="86"/>
      <point x="296" y="47"/>
      <point x="357" y="47" type="curve" smooth="yes"/>
      <point x="419" y="47"/>
      <point x="447" y="84"/>
      <point x="457" y="84" type="curve" smooth="yes"/>
      <point x="466" y="84"/>
      <point x="471" y="47"/>
      <point x="511" y="47" type="curve" smooth="yes"/>
      <point x="621" y="47"/>
      <point x="716" y="118"/>
      <point x="716" y="238" type="curve" smooth="yes"/>
      <point x="716" y="384"/>
      <point x="583" y="507"/>
      <point x="429" y="507" type="curve" smooth="yes"/>
      <point x="231" y="507"/>
      <point x="56" y="395"/>
      <point x="56" y="181" type="curve" smooth="yes"/>
      <point x="56" y="-3"/>
      <point x="211" y="-131"/>
    </contour>
    <contour>
      <point x="371" y="73" type="curve" smooth="yes"/>
      <point x="330" y="73"/>
      <point x="282" y="96"/>
      <point x="282" y="173" type="curve" smooth="yes"/>
      <point x="282" y="278"/>
      <point x="347" y="334"/>
      <point x="407" y="334" type="curve" smooth="yes"/>
      <point x="454" y="334"/>
      <point x="483" y="312"/>
      <point x="483" y="272" type="curve" smooth="yes"/>
      <point x="483" y="267"/>
      <point x="483" y="263"/>
      <point x="482" y="259" type="curve"/>
      <point x="463" y="149" type="line" smooth="yes"/>
      <point x="457" y="115"/>
      <point x="447" y="105"/>
      <point x="435" y="96" type="curve" smooth="yes"/>
      <point x="413" y="81"/>
      <point x="396" y="73"/>
    </contour>
  </outline>
</glyph>
<glyph name="B" format="1">
  <advance width="507"/>
  <unicode hex="0042"/>
  <outline>
    <contour>
      <point x="45" y="-5" type="curve" smooth="yes"/>
      <point x="88" y="-5"/>
      <point x="105" y="0"/>
      <point x="149" y="0" type="curve" smooth="yes"/>
      <point x="184" y="0"/>
      <point x="216" y="-4"/>
      <point x="231" y="-4" type="curve" smooth="yes"/>
      <point x="295" y="-4"/>
      <point x="341" y="9"/>
      <point x="378" y="30" type="curve" smooth="yes"/>
      <point x="414" y="52"/>
      <point x="466" y="85"/>
      <point x="466" y="194" type="curve" smooth="yes"/>
      <point x="466" y="304"/>
      <point x="368" y="348"/>
      <point x="285" y="356" type="curve" smooth="yes"/>
      <point x="279" y="357"/>
      <point x="279" y="363"/>
      <point x="285" y="364" type="curve" smooth="yes"/>
      <point x="328" y="370"/>
      <point x="369" y="387"/>
      <point x="391" y="409" type="curve" smooth="yes"/>
      <point x="414" y="432"/>
      <point x="429" y="461"/>
      <point x="429" y="504" type="curve" smooth="yes"/>
      <point x="429" y="613"/>
      <point x="364" y="657"/>
      <point x="231" y="657" type="curve" smooth="yes"/>
      <point x="182" y="657"/>
      <point x="169" y="652"/>
      <point x="137" y="652" type="curve" smooth="yes"/>
      <point x="102" y="652"/>
      <point x="95" y="653"/>
      <point x="53" y="653" type="curve" smooth="yes"/>
      <point x="37" y="653"/>
      <point x="25" y="651"/>
      <point x="24" y="646" type="curve" smooth="yes"/>
      <point x="24" y="639"/>
      <point x="34" y="633"/>
      <point x="55" y="632" type="curve" smooth="yes"/>
      <point x="104" y="629"/>
      <point x="117" y="617"/>
      <point x="117" y="568" type="curve" smooth="yes"/>
      <point x="117" y="83" type="line" smooth="yes"/>
      <point x="117" y="33"/>
      <point x="105" y="24"/>
      <point x="49" y="16" type="curve" smooth="yes"/>
      <point x="29" y="13"/>
      <point x="20" y="9"/>
      <point x="20" y="3" type="curve" smooth="yes"/>
      <point x="20" y="-3"/>
      <point x="32" y="-5"/>
    </contour>
    <contour>
      <point x="241" y="21" type="curve" smooth="yes"/>
      <point x="187" y="21"/>
      <point x="157" y="37"/>
      <point x="157" y="97" type="curve" smooth="yes"/>
      <point x="157" y="310" type="line" smooth="yes"/>
      <point x="157" y="324"/>
      <point x="172" y="348"/>
      <point x="218" y="348" type="curve" smooth="yes"/>
      <point x="283" y="348"/>
      <point x="326" y="336"/>
      <point x="352" y="320" type="curve" smooth="yes"/>
      <point x="386" y="299"/>
      <point x="419" y="258"/>
      <point x="419" y="184" type="curve" smooth="yes"/>
      <point x="419" y="91"/>
      <point x="339" y="21"/>
    </contour>
    <contour>
      <point x="206" y="367" type="curve" smooth="yes"/>
      <point x="189" y="367"/>
      <point x="157" y="369"/>
      <point x="157" y="406" type="curve" smooth="yes"/>
      <point x="157" y="590" type="line" smooth="yes"/>
      <point x="157" y="621"/>
      <point x="169" y="637"/>
      <point x="228" y="637" type="curve" smooth="yes"/>
      <point x="361" y="637"/>
      <point x="386" y="559"/>
      <point x="386" y="498" type="curve" smooth="yes"/>
      <point x="386" y="438"/>
      <point x="361" y="407"/>
      <point x="341" y="394" type="curve" smooth="yes"/>
      <point x="303" y="372"/>
      <point x="256" y="367"/>
    </contour>
  </outline>
</glyph>
<glyph name="C" format="1">
  <advance width="681"/>
  <unicode hex="0043"/>
  <outline>
    <contour>
      <point x="368" y="-15" type="curve" smooth="yes"/>
      <point x="436" y="-15"/>
      <point x="514" y="-6"/>
      <point x="564" y="14" type="curve" smooth="yes"/>
      <point x="586" y="21"/>
      <point x="587" y="22"/>
      <point x="597" y="41" type="curve" smooth="yes"/>
      <point x="609" y="70"/>
      <point x="624" y="122"/>
      <point x="624" y="138" type="curve" smooth="yes"/>
      <point x="624" y="159"/>
      <point x="601" y="159"/>
      <point x="593" y="141" type="curve" smooth="yes"/>
      <point x="546" y="49"/>
      <point x="490" y="7"/>
      <point x="383" y="7" type="curve" smooth="yes"/>
      <point x="210" y="7"/>
      <point x="97" y="180"/>
      <point x="97" y="347" type="curve" smooth="yes"/>
      <point x="97" y="498"/>
      <point x="213" y="641"/>
      <point x="375" y="641" type="curve" smooth="yes"/>
      <point x="446" y="641"/>
      <point x="493" y="624"/>
      <point x="525" y="600" type="curve" smooth="yes"/>
      <point x="558" y="574"/>
      <point x="572" y="538"/>
      <point x="585" y="487" type="curve" smooth="yes"/>
      <point x="591" y="464"/>
      <point x="618" y="473"/>
      <point x="617" y="488" type="curve" smooth="yes"/>
      <point x="615" y="540"/>
      <point x="611" y="572"/>
      <point x="608" y="603" type="curve" smooth="yes"/>
      <point x="606" y="621"/>
      <point x="599" y="632"/>
      <point x="578" y="637" type="curve" smooth="yes"/>
      <point x="508" y="654"/>
      <point x="474" y="663"/>
      <point x="394" y="663" type="curve" smooth="yes"/>
      <point x="211" y="663"/>
      <point x="48" y="517"/>
      <point x="48" y="323" type="curve" smooth="yes"/>
      <point x="48" y="119"/>
      <point x="204" y="-15"/>
    </contour>
  </outline>
</glyph>
<glyph name="D" format="1">
  <advance width="693"/>
  <unicode hex="0044"/>
  <outline>
    <contour>
      <point x="340" y="-7" type="curve" smooth="yes"/>
      <point x="514" y="-7"/>
      <point x="657" y="150"/>
      <point x="657" y="342" type="curve" smooth="yes"/>
      <point x="657" y="507"/>
      <point x="555" y="659"/>
      <point x="312" y="659" type="curve" smooth="yes"/>
      <point x="288" y="659"/>
      <point x="196" y="651"/>
      <point x="157" y="651" type="curve" smooth="yes"/>
      <point x="113" y="651"/>
      <point x="103" y="653"/>
      <point x="56" y="653" type="curve" smooth="yes"/>
      <point x="41" y="653"/>
      <point x="30" y="650"/>
      <point x="30" y="644" type="curve" smooth="yes"/>
      <point x="30" y="636"/>
      <point x="40" y="634"/>
      <point x="63" y="632" type="curve" smooth="yes"/>
      <point x="119" y="626"/>
      <point x="131" y="613"/>
      <point x="131" y="570" type="curve" smooth="yes"/>
      <point x="131" y="94" type="line" smooth="yes"/>
      <point x="131" y="36"/>
      <point x="117" y="23"/>
      <point x="63" y="16" type="curve" smooth="yes"/>
      <point x="40" y="13"/>
      <point x="30" y="13"/>
      <point x="30" y="5" type="curve" smooth="yes"/>
      <point x="30" y="-3"/>
      <point x="41" y="-5"/>
      <point x="56" y="-5" type="curve" smooth="yes"/>
      <point x="104" y="-5"/>
      <point x="115" y="0"/>
      <point x="152" y="0" type="curve" smooth="yes"/>
      <point x="224" y="0"/>
      <point x="322" y="-7"/>
    </contour>
    <contour>
      <point x="330" y="18" type="curve" smooth="yes"/>
      <point x="247" y="18"/>
      <point x="171" y="31"/>
      <point x="171" y="115" type="curve" smooth="yes"/>
      <point x="171" y="575" type="line" smooth="yes"/>
      <point x="171" y="636"/>
      <point x="220" y="638"/>
      <point x="315" y="638" type="curve" smooth="yes"/>
      <point x="461" y="638"/>
      <point x="609" y="524"/>
      <point x="609" y="325" type="curve" smooth="yes"/>
      <point x="609" y="145"/>
      <point x="494" y="18"/>
    </contour>
  </outline>
</glyph>
<glyph name="J" format="1">
  <advance width="308"/>
  <unicode hex="004A"/>
  <outline>
    <contour>
      <point x="16" y="-200" type="curve" smooth="yes"/>
      <point x="67" y="-200"/>
      <point x="99" y="-175"/>
      <point x="123" y="-138" type="curve" smooth="yes"/>
      <point x="148" y="-98"/>
      <point x="172" y="-37"/>
      <point x="172" y="34" type="curve" smooth="yes"/>
      <point x="172" y="576" type="line" smooth="yes"/>
      <point x="172" y="611"/>
      <point x="194" y="623"/>
      <point x="245" y="630" type="curve" smooth="yes"/>
      <point x="268" y="633"/>
      <point x="279" y="638"/>
      <point x="279" y="645" type="curve" smooth="yes"/>
      <point x="279" y="651"/>
      <point x="266" y="653"/>
      <point x="249" y="653" type="curve" smooth="yes"/>
      <point x="204" y="653"/>
      <point x="193" y="651"/>
      <point x="158" y="651" type="curve" smooth="yes"/>
      <point x="119" y="651"/>
      <point x="105" y="653"/>
      <point x="60" y="653" type="curve" smooth="yes"/>
      <point x="42" y="653"/>
      <point x="30" y="651"/>
      <point x="30" y="645" type="curve" smooth="yes"/>
      <point x="30" y="638"/>
      <point x="40" y="633"/>
      <point x="64" y="630" type="curve" smooth="yes"/>
      <point x="115" y="623"/>
      <point x="132" y="611"/>
      <point x="132" y="576" type="curve" smooth="yes"/>
      <point x="132" y="1" type="line" smooth="yes"/>
      <point x="132" y="-104"/>
      <point x="110" y="-169"/>
      <point x="61" y="-169" type="curve" smooth="yes"/>
      <point x="42" y="-169"/>
      <point x="28" y="-160"/>
      <point x="11" y="-134" type="curve" smooth="yes"/>
      <point x="-4" y="-112"/>
      <point x="-20" y="-104"/>
      <point x="-37" y="-104" type="curve" smooth="yes"/>
      <point x="-52" y="-104"/>
      <point x="-75" y="-128"/>
      <point x="-75" y="-151" type="curve" smooth="yes"/>
      <point x="-75" y="-182"/>
      <point x="-46" y="-200"/>
    </contour>
  </outline>
</glyph>
<glyph name="K" format="1">
  <advance width="606"/>
  <unicode hex="004B"/>
  <outline>
    <contour>
      <point x="58" y="-5" type="curve" smooth="yes"/>
      <point x="105" y="-5"/>
      <point x="124" y="2"/>
      <point x="167" y="2" type="curve" smooth="yes"/>
      <point x="200" y="2"/>
      <point x="205" y="-5"/>
      <point x="252" y="-5" type="curve" smooth="yes"/>
      <point x="267" y="-5"/>
      <point x="277" y="-3"/>
      <point x="277" y="3" type="curve" smooth="yes"/>
      <point x="277" y="9"/>
      <point x="267" y="13"/>
      <point x="244" y="15" type="curve" smooth="yes"/>
      <point x="193" y="22"/>
      <point x="181" y="45"/>
      <point x="179" y="77" type="curve" smooth="yes"/>
      <point x="175" y="189"/>
      <point x="174" y="240"/>
      <point x="174" y="303" type="curve" smooth="yes"/>
      <point x="174" y="310"/>
      <point x="173" y="324"/>
      <point x="178" y="324" type="curve" smooth="yes"/>
      <point x="183" y="324"/>
      <point x="194" y="315"/>
      <point x="202" y="307" type="curve"/>
      <point x="445" y="57" type="line" smooth="yes"/>
      <point x="453" y="49"/>
      <point x="458" y="42"/>
      <point x="458" y="36" type="curve" smooth="yes"/>
      <point x="457" y="28"/>
      <point x="445" y="23"/>
      <point x="420" y="19" type="curve"/>
      <point x="400" y="16"/>
      <point x="392" y="13"/>
      <point x="392" y="7" type="curve" smooth="yes"/>
      <point x="392" y="1"/>
      <point x="402" y="-1"/>
      <point x="415" y="-1" type="curve" smooth="yes"/>
      <point x="451" y="-1"/>
      <point x="460" y="0"/>
      <point x="480" y="0" type="curve" smooth="yes"/>
      <point x="523" y="0"/>
      <point x="544" y="-5"/>
      <point x="590" y="-5" type="curve" smooth="yes"/>
      <point x="604" y="-5"/>
      <point x="614" y="-3"/>
      <point x="614" y="3" type="curve" smooth="yes"/>
      <point x="614" y="9"/>
      <point x="603" y="13"/>
      <point x="581" y="16" type="curve" smooth="yes"/>
      <point x="550" y="20"/>
      <point x="531" y="30"/>
      <point x="485" y="78" type="curve" smooth="yes"/>
      <point x="227" y="342" type="line" smooth="yes"/>
      <point x="220" y="349"/>
      <point x="217" y="355"/>
      <point x="222" y="360" type="curve"/>
      <point x="296" y="437"/>
      <point x="385" y="529"/>
      <point x="460" y="591" type="curve" smooth="yes"/>
      <point x="498" y="623"/>
      <point x="516" y="631"/>
      <point x="565" y="633" type="curve" smooth="yes"/>
      <point x="589" y="635"/>
      <point x="599" y="641"/>
      <point x="599" y="647" type="curve" smooth="yes"/>
      <point x="599" y="652"/>
      <point x="591" y="655"/>
      <point x="579" y="655" type="curve" smooth="yes"/>
      <point x="566" y="655"/>
      <point x="523" y="651"/>
      <point x="468" y="651" type="curve" smooth="yes"/>
      <point x="416" y="651" type="line" smooth="yes"/>
      <point x="399" y="651"/>
      <point x="388" y="649"/>
      <point x="388" y="643" type="curve" smooth="yes"/>
      <point x="388" y="637"/>
      <point x="395" y="633"/>
      <point x="416" y="630" type="curve" smooth="yes"/>
      <point x="440" y="628"/>
      <point x="449" y="623"/>
      <point x="449" y="612" type="curve" smooth="yes"/>
      <point x="449" y="603"/>
      <point x="440" y="592"/>
      <point x="425" y="577" type="curve" smooth="yes"/>
      <point x="207" y="361" type="line"/>
      <point x="199" y="353"/>
      <point x="187" y="343"/>
      <point x="179" y="343" type="curve" smooth="yes"/>
      <point x="174" y="343"/>
      <point x="174" y="357"/>
      <point x="174" y="362" type="curve" smooth="yes"/>
      <point x="174" y="579" type="line" smooth="yes"/>
      <point x="174" y="607"/>
      <point x="177" y="626"/>
      <point x="229" y="632" type="curve" smooth="yes"/>
      <point x="253" y="634"/>
      <point x="263" y="639"/>
      <point x="263" y="645" type="curve" smooth="yes"/>
      <point x="263" y="651"/>
      <point x="252" y="653"/>
      <point x="238" y="653" type="curve" smooth="yes"/>
      <point x="191" y="653"/>
      <point x="187" y="651"/>
      <point x="154" y="651" type="curve" smooth="yes"/>
      <point x="116" y="651"/>
      <point x="104" y="653"/>
      <point x="57" y="653" type="curve" smooth="yes"/>
      <point x="43" y="653"/>
      <point x="33" y="651"/>
      <point x="33" y="645" type="curve" smooth="yes"/>
      <point x="33" y="639"/>
      <point x="43" y="633"/>
      <point x="66" y="631" type="curve" smooth="yes"/>
      <point x="120" y="626"/>
      <point x="134" y="612"/>
      <point x="134" y="576" type="curve" smooth="yes"/>
      <point x="134" y="71" type="line" smooth="yes"/>
      <point x="134" y="34"/>
      <point x="117" y="22"/>
      <point x="66" y="15" type="curve" smooth="yes"/>
      <point x="43" y="13"/>
      <point x="33" y="9"/>
      <point x="33" y="3" type="curve" smooth="yes"/>
      <point x="33" y="-3"/>
      <point x="43" y="-5"/>
    </contour>
  </outline>
</glyph>
<glyph name="N" format="1">
  <advance width="817"/>
  <unicode hex="004E"/>
  <outline>
    <contour>
      <point x="690" y="-17" type="curve" smooth="yes"/>
      <point x="700" y="-17"/>
      <point x="711" y="-13"/>
      <point x="711" y="8" type="curve" smooth="yes"/>
      <point x="711" y="21"/>
      <point x="706" y="57"/>
      <point x="706" y="105" type="curve" smooth="yes"/>
      <point x="706" y="289"/>
      <point x="707" y="516"/>
      <point x="708" y="574" type="curve" smooth="yes"/>
      <point x="709" y="612"/>
      <point x="724" y="622"/>
      <point x="772" y="630" type="curve" smooth="yes"/>
      <point x="796" y="634"/>
      <point x="806" y="638"/>
      <point x="806" y="645" type="curve" smooth="yes"/>
      <point x="806" y="650"/>
      <point x="794" y="653"/>
      <point x="778" y="653" type="curve" smooth="yes"/>
      <point x="722" y="653"/>
      <point x="716" y="649"/>
      <point x="676" y="649" type="curve" smooth="yes"/>
      <point x="648" y="649"/>
      <point x="636" y="651"/>
      <point x="606" y="651" type="curve" smooth="yes"/>
      <point x="590" y="651"/>
      <point x="571" y="649"/>
      <point x="571" y="643" type="curve" smooth="yes"/>
      <point x="571" y="637"/>
      <point x="589" y="633"/>
      <point x="613" y="629" type="curve" smooth="yes"/>
      <point x="651" y="624"/>
      <point x="677" y="605"/>
      <point x="677" y="572" type="curve"/>
      <point x="677" y="400"/>
      <point x="677" y="135"/>
      <point x="676" y="71" type="curve"/>
      <point x="675" y="56"/>
      <point x="671" y="50"/>
      <point x="665" y="50" type="curve" smooth="yes"/>
      <point x="657" y="50"/>
      <point x="645" y="64"/>
      <point x="639" y="70" type="curve" smooth="yes"/>
      <point x="619" y="94"/>
      <point x="236" y="609"/>
      <point x="217" y="636" type="curve"/>
      <point x="209" y="645"/>
      <point x="204" y="653"/>
      <point x="192" y="653" type="curve" smooth="yes"/>
      <point x="118" y="653"/>
      <point x="115" y="656"/>
      <point x="36" y="658" type="curve" smooth="yes"/>
      <point x="29" y="658"/>
      <point x="12" y="656"/>
      <point x="12" y="649" type="curve" smooth="yes"/>
      <point x="12" y="640"/>
      <point x="34" y="634"/>
      <point x="43" y="633" type="curve" smooth="yes"/>
      <point x="105" y="620"/>
      <point x="145" y="599"/>
      <point x="145" y="536" type="curve" smooth="yes"/>
      <point x="145" y="342"/>
      <point x="135" y="182"/>
      <point x="128" y="89" type="curve" smooth="yes"/>
      <point x="125" y="47"/>
      <point x="108" y="25"/>
      <point x="67" y="17" type="curve" smooth="yes"/>
      <point x="44" y="12"/>
      <point x="33" y="9"/>
      <point x="33" y="3" type="curve" smooth="yes"/>
      <point x="33" y="-3"/>
      <point x="45" y="-5"/>
      <point x="61" y="-5" type="curve" smooth="yes"/>
      <point x="113" y="-5"/>
      <point x="115" y="0"/>
      <point x="149" y="0" type="curve" smooth="yes"/>
      <point x="185" y="0"/>
      <point x="187" y="-5"/>
      <point x="239" y="-5" type="curve" smooth="yes"/>
      <point x="256" y="-5"/>
      <point x="267" y="-3"/>
      <point x="267" y="3" type="curve" smooth="yes"/>
      <point x="267" y="9"/>
      <point x="257" y="13"/>
      <point x="233" y="16" type="curve" smooth="yes"/>
      <point x="179" y="24"/>
      <point x="165" y="49"/>
      <point x="165" y="87" type="curve" smooth="yes"/>
      <point x="165" y="227"/>
      <point x="172" y="474"/>
      <point x="172" y="573" type="curve" smooth="yes"/>
      <point x="172" y="581"/>
      <point x="175" y="594"/>
      <point x="182" y="594" type="curve" smooth="yes"/>
      <point x="187" y="594"/>
      <point x="193" y="590"/>
      <point x="204" y="578" type="curve" smooth="yes"/>
      <point x="228" y="550"/>
      <point x="585" y="71"/>
      <point x="604" y="46" type="curve" smooth="yes"/>
      <point x="637" y="2"/>
      <point x="677" y="-17"/>
    </contour>
  </outline>
</glyph>
<glyph name="O" format="1">
  <advance width="694"/>
  <unicode hex="004F"/>
  <outline>
    <contour>
      <point x="343" y="-14" type="curve" smooth="yes"/>
      <point x="548" y="-14"/>
      <point x="648" y="152"/>
      <point x="648" y="317" type="curve" smooth="yes"/>
      <point x="648" y="529"/>
      <point x="504" y="664"/>
      <point x="351" y="664" type="curve" smooth="yes"/>
      <point x="149" y="664"/>
      <point x="47" y="503"/>
      <point x="47" y="333" type="curve" smooth="yes"/>
      <point x="47" y="123"/>
      <point x="190" y="-14"/>
    </contour>
    <contour>
      <point x="358" y="13" type="curve" smooth="yes"/>
      <point x="185" y="13"/>
      <point x="95" y="171"/>
      <point x="95" y="367" type="curve" smooth="yes"/>
      <point x="95" y="530"/>
      <point x="177" y="635"/>
      <point x="335" y="635" type="curve" smooth="yes"/>
      <point x="509" y="635"/>
      <point x="600" y="478"/>
      <point x="600" y="284" type="curve" smooth="yes"/>
      <point x="600" y="121"/>
      <point x="518" y="13"/>
    </contour>
  </outline>
</glyph>
<glyph name="P" format="1">
  <advance width="487"/>
  <unicode hex="0050"/>
  <outline>
    <contour>
      <point x="50" y="-5" type="curve" smooth="yes"/>
      <point x="98" y="-5"/>
      <point x="119" y="2"/>
      <point x="163" y="2" type="curve" smooth="yes"/>
      <point x="196" y="2"/>
      <point x="201" y="-5"/>
      <point x="249" y="-5" type="curve" smooth="yes"/>
      <point x="264" y="-5"/>
      <point x="274" y="-2"/>
      <point x="274" y="3" type="curve" smooth="yes"/>
      <point x="274" y="10"/>
      <point x="264" y="14"/>
      <point x="240" y="17" type="curve" smooth="yes"/>
      <point x="183" y="23"/>
      <point x="172" y="44"/>
      <point x="172" y="103" type="curve" smooth="yes"/>
      <point x="172" y="595" type="line" smooth="yes"/>
      <point x="172" y="626"/>
      <point x="200" y="639"/>
      <point x="240" y="639" type="curve" smooth="yes"/>
      <point x="342" y="639"/>
      <point x="418" y="590"/>
      <point x="418" y="473" type="curve" smooth="yes"/>
      <point x="418" y="348"/>
      <point x="373" y="275"/>
      <point x="281" y="275" type="curve" smooth="yes"/>
      <point x="267" y="275"/>
      <point x="243" y="277"/>
      <point x="237" y="277" type="curve" smooth="yes"/>
      <point x="230" y="277"/>
      <point x="221" y="271"/>
      <point x="221" y="267" type="curve" smooth="yes"/>
      <point x="221" y="262"/>
      <point x="239" y="254"/>
      <point x="268" y="254" type="curve" smooth="yes"/>
      <point x="400" y="254"/>
      <point x="461" y="357"/>
      <point x="461" y="480" type="curve" smooth="yes"/>
      <point x="461" y="592"/>
      <point x="373" y="658"/>
      <point x="240" y="658" type="curve" smooth="yes"/>
      <point x="216" y="658"/>
      <point x="178" y="652"/>
      <point x="144" y="652" type="curve" smooth="yes"/>
      <point x="110" y="652"/>
      <point x="107" y="653"/>
      <point x="62" y="653" type="curve" smooth="yes"/>
      <point x="47" y="653"/>
      <point x="37" y="650"/>
      <point x="37" y="645" type="curve" smooth="yes"/>
      <point x="37" y="640"/>
      <point x="47" y="634"/>
      <point x="70" y="632" type="curve" smooth="yes"/>
      <point x="124" y="626"/>
      <point x="132" y="605"/>
      <point x="132" y="545" type="curve" smooth="yes"/>
      <point x="132" y="92" type="line" smooth="yes"/>
      <point x="132" y="34"/>
      <point x="116" y="21"/>
      <point x="58" y="16" type="curve" smooth="yes"/>
      <point x="35" y="14"/>
      <point x="25" y="10"/>
      <point x="25" y="3" type="curve" smooth="yes"/>
      <point x="25" y="-2"/>
      <point x="35" y="-5"/>
    </contour>
  </outline>
</glyph>
<glyph name="R" format="1">
  <advance width="698"/>
  <unicode hex="0052"/>
  <outline>
    <contour>
      <point x="621" y="-21" type="curve" smooth="yes"/>
      <point x="647" y="-21"/>
      <point x="704" y="-17"/>
      <point x="704" y="4" type="curve" smooth="yes"/>
      <point x="704" y="9"/>
      <point x="699" y="12"/>
      <point x="687" y="12" type="curve" smooth="yes"/>
      <point x="638" y="12"/>
      <point x="606" y="17"/>
      <point x="567" y="45" type="curve" smooth="yes"/>
      <point x="447" y="135"/>
      <point x="389" y="222"/>
      <point x="312" y="313" type="curve" smooth="yes"/>
      <point x="307" y="319"/>
      <point x="307" y="324"/>
      <point x="312" y="326" type="curve"/>
      <point x="378" y="354"/>
      <point x="436" y="403"/>
      <point x="436" y="493" type="curve" smooth="yes"/>
      <point x="436" y="602"/>
      <point x="370" y="657"/>
      <point x="247" y="657" type="curve" smooth="yes"/>
      <point x="198" y="657"/>
      <point x="183" y="652"/>
      <point x="151" y="652" type="curve" smooth="yes"/>
      <point x="116" y="652"/>
      <point x="113" y="653"/>
      <point x="67" y="653" type="curve" smooth="yes"/>
      <point x="50" y="653"/>
      <point x="37" y="651"/>
      <point x="37" y="645" type="curve" smooth="yes"/>
      <point x="37" y="638"/>
      <point x="48" y="632"/>
      <point x="71" y="630" type="curve" smooth="yes"/>
      <point x="128" y="626"/>
      <point x="133" y="615"/>
      <point x="133" y="545" type="curve" smooth="yes"/>
      <point x="133" y="83" type="line" smooth="yes"/>
      <point x="133" y="37"/>
      <point x="116" y="24"/>
      <point x="59" y="17" type="curve" smooth="yes"/>
      <point x="36" y="14"/>
      <point x="26" y="10"/>
      <point x="26" y="3" type="curve" smooth="yes"/>
      <point x="26" y="-3"/>
      <point x="38" y="-5"/>
      <point x="55" y="-5" type="curve" smooth="yes"/>
      <point x="101" y="-5"/>
      <point x="122" y="2"/>
      <point x="165" y="2" type="curve" smooth="yes"/>
      <point x="197" y="2"/>
      <point x="205" y="-5"/>
      <point x="249" y="-5" type="curve" smooth="yes"/>
      <point x="264" y="-5"/>
      <point x="274" y="-3"/>
      <point x="274" y="3" type="curve" smooth="yes"/>
      <point x="274" y="10"/>
      <point x="264" y="14"/>
      <point x="241" y="17" type="curve" smooth="yes"/>
      <point x="188" y="23"/>
      <point x="173" y="45"/>
      <point x="173" y="87" type="curve" smooth="yes"/>
      <point x="173" y="286" type="line" smooth="yes"/>
      <point x="173" y="298"/>
      <point x="177" y="307"/>
      <point x="189" y="306" type="curve" smooth="yes"/>
      <point x="213" y="304"/>
      <point x="247" y="299"/>
      <point x="277" y="285" type="curve" smooth="yes"/>
      <point x="298" y="275"/>
      <point x="310" y="264"/>
      <point x="322" y="246" type="curve" smooth="yes"/>
      <point x="392" y="135"/>
      <point x="427" y="93"/>
      <point x="479" y="33" type="curve" smooth="yes"/>
      <point x="515" y="-10"/>
      <point x="563" y="-21"/>
    </contour>
    <contour>
      <point x="230" y="323" type="curve" smooth="yes"/>
      <point x="194" y="323"/>
      <point x="173" y="325"/>
      <point x="173" y="359" type="curve" smooth="yes"/>
      <point x="173" y="443"/>
      <point x="174" y="501"/>
      <point x="175" y="536" type="curve" smooth="yes"/>
      <point x="178" y="608"/>
      <point x="187" y="633"/>
      <point x="233" y="633" type="curve" smooth="yes"/>
      <point x="369" y="633"/>
      <point x="392" y="562"/>
      <point x="392" y="477" type="curve" smooth="yes"/>
      <point x="392" y="390"/>
      <point x="343" y="323"/>
    </contour>
  </outline>
</glyph>
<glyph name="S" format="1">
  <advance width="442"/>
  <unicode hex="0053"/>
  <outline>
    <contour>
      <point x="195" y="-16" type="curve" smooth="yes"/>
      <point x="318" y="-16"/>
      <point x="399" y="58"/>
      <point x="399" y="166" type="curve" smooth="yes"/>
      <point x="399" y="265"/>
      <point x="324" y="309"/>
      <point x="247" y="353" type="curve" smooth="yes"/>
      <point x="167" y="399"/>
      <point x="101" y="450"/>
      <point x="101" y="516" type="curve" smooth="yes"/>
      <point x="101" y="599"/>
      <point x="152" y="640"/>
      <point x="221" y="640" type="curve" smooth="yes"/>
      <point x="282" y="640"/>
      <point x="320" y="608"/>
      <point x="352" y="521" type="curve" smooth="yes"/>
      <point x="355" y="513"/>
      <point x="368" y="507"/>
      <point x="378" y="507" type="curve" smooth="yes"/>
      <point x="385" y="507"/>
      <point x="391" y="510"/>
      <point x="391" y="518" type="curve" smooth="yes"/>
      <point x="391" y="550"/>
      <point x="379" y="589"/>
      <point x="371" y="617" type="curve" smooth="yes"/>
      <point x="368" y="627"/>
      <point x="359" y="638"/>
      <point x="349" y="642" type="curve" smooth="yes"/>
      <point x="329" y="651"/>
      <point x="297" y="664"/>
      <point x="253" y="664" type="curve" smooth="yes"/>
      <point x="113" y="664"/>
      <point x="62" y="585"/>
      <point x="62" y="496" type="curve" smooth="yes"/>
      <point x="62" y="412"/>
      <point x="149" y="358"/>
      <point x="233" y="309" type="curve" smooth="yes"/>
      <point x="322" y="256"/>
      <point x="356" y="220"/>
      <point x="356" y="146" type="curve" smooth="yes"/>
      <point x="356" y="61"/>
      <point x="303" y="7"/>
      <point x="227" y="7" type="curve" smooth="yes"/>
      <point x="164" y="7"/>
      <point x="103" y="44"/>
      <point x="75" y="160" type="curve" smooth="yes"/>
      <point x="73" y="167"/>
      <point x="65" y="171"/>
      <point x="60" y="171" type="curve" smooth="yes"/>
      <point x="50" y="171"/>
      <point x="41" y="166"/>
      <point x="41" y="157" type="curve"/>
      <point x="43" y="129"/>
      <point x="45" y="79"/>
      <point x="52" y="52" type="curve" smooth="yes"/>
      <point x="54" y="44"/>
      <point x="59" y="37"/>
      <point x="64" y="32" type="curve"/>
      <point x="98" y="1"/>
      <point x="143" y="-16"/>
    </contour>
  </outline>
</glyph>
<glyph name="U" format="1">
  <advance width="722"/>
  <unicode hex="0055"/>
  <outline>
    <contour>
      <point x="359" y="-14" type="curve" smooth="yes"/>
      <point x="498" y="-14"/>
      <point x="604" y="95"/>
      <point x="608" y="251" type="curve" smooth="yes"/>
      <point x="611" y="342"/>
      <point x="611" y="432"/>
      <point x="619" y="563" type="curve" smooth="yes"/>
      <point x="621" y="605"/>
      <point x="635" y="624"/>
      <point x="675" y="631" type="curve" smooth="yes"/>
      <point x="700" y="635"/>
      <point x="711" y="639"/>
      <point x="711" y="645" type="curve" smooth="yes"/>
      <point x="711" y="651"/>
      <point x="699" y="653"/>
      <point x="682" y="653" type="curve" smooth="yes"/>
      <point x="658" y="653"/>
      <point x="632" y="650"/>
      <point x="600" y="650" type="curve" smooth="yes"/>
      <point x="570" y="650"/>
      <point x="554" y="651"/>
      <point x="523" y="651" type="curve" smooth="yes"/>
      <point x="506" y="651"/>
      <point x="494" y="650"/>
      <point x="494" y="644" type="curve" smooth="yes"/>
      <point x="494" y="638"/>
      <point x="515" y="633"/>
      <point x="531" y="629" type="curve" smooth="yes"/>
      <point x="563" y="622"/>
      <point x="577" y="587"/>
      <point x="578" y="532" type="curve" smooth="yes"/>
      <point x="580" y="435"/>
      <point x="581" y="340"/>
      <point x="581" y="296" type="curve" smooth="yes"/>
      <point x="581" y="140"/>
      <point x="517" y="36"/>
      <point x="370" y="36" type="curve" smooth="yes"/>
      <point x="239" y="36"/>
      <point x="146" y="108"/>
      <point x="146" y="268" type="curve" smooth="yes"/>
      <point x="146" y="565" type="line" smooth="yes"/>
      <point x="146" y="607"/>
      <point x="167" y="626"/>
      <point x="190" y="630" type="curve" smooth="yes"/>
      <point x="213" y="635"/>
      <point x="224" y="638"/>
      <point x="224" y="645" type="curve" smooth="yes"/>
      <point x="224" y="650"/>
      <point x="214" y="652"/>
      <point x="200" y="652" type="curve" smooth="yes"/>
      <point x="180" y="652"/>
      <point x="157" y="650"/>
      <point x="130" y="650" type="curve" smooth="yes"/>
      <point x="99" y="650"/>
      <point x="74" y="653"/>
      <point x="48" y="653" type="curve" smooth="yes"/>
      <point x="34" y="653"/>
      <point x="24" y="651"/>
      <point x="24" y="645" type="curve" smooth="yes"/>
      <point x="24" y="639"/>
      <point x="34" y="634"/>
      <point x="57" y="630" type="curve" smooth="yes"/>
      <point x="89" y="625"/>
      <point x="105" y="611"/>
      <point x="105" y="561" type="curve" smooth="yes"/>
      <point x="105" y="240" type="line" smooth="yes"/>
      <point x="105" y="87"/>
      <point x="191" y="-14"/>
    </contour>
  </outline>
</glyph>
<glyph name="V" format="1">
  <advance width="640"/>
  <unicode hex="0056"/>
  <outline>
    <contour>
      <point x="299" y="-11" type="curve" smooth="yes"/>
      <point x="302" y="-11"/>
      <point x="305" y="-9"/>
      <point x="306" y="-5" type="curve" smooth="yes"/>
      <point x="314" y="19"/>
      <point x="322" y="70"/>
      <point x="326" y="79" type="curve" smooth="yes"/>
      <point x="529" y="556" type="line" smooth="yes"/>
      <point x="544" y="592"/>
      <point x="567" y="624"/>
      <point x="620" y="631" type="curve" smooth="yes"/>
      <point x="644" y="634"/>
      <point x="654" y="639"/>
      <point x="654" y="645" type="curve" smooth="yes"/>
      <point x="654" y="650"/>
      <point x="643" y="653"/>
      <point x="626" y="653" type="curve" smooth="yes"/>
      <point x="601" y="653"/>
      <point x="555" y="650"/>
      <point x="517" y="650" type="curve" smooth="yes"/>
      <point x="481" y="650"/>
      <point x="448" y="651"/>
      <point x="423" y="651" type="curve" smooth="yes"/>
      <point x="406" y="651"/>
      <point x="395" y="649"/>
      <point x="395" y="643" type="curve" smooth="yes"/>
      <point x="395" y="637"/>
      <point x="408" y="632"/>
      <point x="434" y="629" type="curve" smooth="yes"/>
      <point x="493" y="623"/>
      <point x="514" y="604"/>
      <point x="481" y="523" type="curve" smooth="yes"/>
      <point x="320" y="128" type="line" smooth="yes"/>
      <point x="317" y="119"/>
      <point x="311" y="122"/>
      <point x="309" y="127" type="curve" smooth="yes"/>
      <point x="153" y="543" type="line"/>
      <point x="150" y="552"/>
      <point x="142" y="569"/>
      <point x="142" y="592" type="curve" smooth="yes"/>
      <point x="142" y="615"/>
      <point x="167" y="627"/>
      <point x="203" y="630" type="curve" smooth="yes"/>
      <point x="229" y="632"/>
      <point x="239" y="639"/>
      <point x="239" y="644" type="curve" smooth="yes"/>
      <point x="239" y="650"/>
      <point x="229" y="652"/>
      <point x="214" y="652" type="curve" smooth="yes"/>
      <point x="197" y="652"/>
      <point x="164" y="650"/>
      <point x="130" y="650" type="curve" smooth="yes"/>
      <point x="90" y="650"/>
      <point x="52" y="653"/>
      <point x="25" y="653" type="curve" smooth="yes"/>
      <point x="10" y="653"/>
      <point x="0" y="651"/>
      <point x="0" y="645" type="curve" smooth="yes"/>
      <point x="0" y="639"/>
      <point x="12" y="634"/>
      <point x="34" y="630" type="curve" smooth="yes"/>
      <point x="67" y="623"/>
      <point x="88" y="594"/>
      <point x="102" y="557" type="curve" smooth="yes"/>
      <point x="278" y="93" type="line" smooth="yes"/>
      <point x="283" y="67"/>
      <point x="288" y="9"/>
      <point x="291" y="-5" type="curve" smooth="yes"/>
      <point x="292" y="-10"/>
      <point x="296" y="-11"/>
    </contour>
  </outline>
</glyph>
<glyph name="W" format="1">
  <advance width="947"/>
  <unicode hex="0057"/>
  <outline>
    <contour>
      <point x="346" y="-16" type="curve" smooth="yes"/>
      <point x="354" y="-16"/>
      <point x="362" y="1"/>
      <point x="367" y="15" type="curve" smooth="yes"/>
      <point x="409" y="122"/>
      <point x="445" y="212"/>
      <point x="487" y="317" type="curve" smooth="yes"/>
      <point x="492" y="330"/>
      <point x="494" y="332"/>
      <point x="498" y="323" type="curve"/>
      <point x="547" y="207"/>
      <point x="573" y="126"/>
      <point x="625" y="7" type="curve" smooth="yes"/>
      <point x="630" y="-2"/>
      <point x="638" y="-12"/>
      <point x="643" y="-12" type="curve" smooth="yes"/>
      <point x="650" y="-12"/>
      <point x="658" y="5"/>
      <point x="660" y="11" type="curve" smooth="yes"/>
      <point x="844" y="558" type="line"/>
      <point x="857" y="593"/>
      <point x="879" y="625"/>
      <point x="923" y="632" type="curve" smooth="yes"/>
      <point x="945" y="635"/>
      <point x="954" y="640"/>
      <point x="954" y="646" type="curve" smooth="yes"/>
      <point x="954" y="651"/>
      <point x="941" y="653"/>
      <point x="924" y="653" type="curve" smooth="yes"/>
      <point x="898" y="653"/>
      <point x="873" y="651"/>
      <point x="839" y="651" type="curve" smooth="yes"/>
      <point x="815" y="651"/>
      <point x="798" y="652"/>
      <point x="774" y="652" type="curve" smooth="yes"/>
      <point x="758" y="652"/>
      <point x="747" y="650"/>
      <point x="747" y="644" type="curve" smooth="yes"/>
      <point x="747" y="638"/>
      <point x="764" y="634"/>
      <point x="777" y="631" type="curve" smooth="yes"/>
      <point x="805" y="626"/>
      <point x="813" y="615"/>
      <point x="814" y="592" type="curve" smooth="yes"/>
      <point x="814" y="583"/>
      <point x="812" y="573"/>
      <point x="809" y="562" type="curve"/>
      <point x="754" y="374"/>
      <point x="684" y="172"/>
      <point x="651" y="82" type="curve"/>
      <point x="647" y="73"/>
      <point x="643" y="69"/>
      <point x="640" y="76" type="curve" smooth="yes"/>
      <point x="523" y="371" type="line"/>
      <point x="519" y="378"/>
      <point x="525" y="399"/>
      <point x="529" y="409" type="curve" smooth="yes"/>
      <point x="546" y="452"/>
      <point x="591" y="559"/>
      <point x="601" y="578" type="curve" smooth="yes"/>
      <point x="619" y="613"/>
      <point x="629" y="625"/>
      <point x="673" y="631" type="curve" smooth="yes"/>
      <point x="696" y="634"/>
      <point x="707" y="639"/>
      <point x="707" y="645" type="curve" smooth="yes"/>
      <point x="707" y="651"/>
      <point x="695" y="653"/>
      <point x="677" y="653" type="curve" smooth="yes"/>
      <point x="653" y="653"/>
      <point x="640" y="650"/>
      <point x="617" y="650" type="curve" smooth="yes"/>
      <point x="597" y="650"/>
      <point x="594" y="652"/>
      <point x="564" y="652" type="curve" smooth="yes"/>
      <point x="546" y="652"/>
      <point x="533" y="651"/>
      <point x="533" y="643" type="curve" smooth="yes"/>
      <point x="533" y="629"/>
      <point x="581" y="632"/>
      <point x="581" y="608" type="curve" smooth="yes"/>
      <point x="581" y="604"/>
      <point x="580" y="598"/>
      <point x="578" y="594" type="curve"/>
      <point x="572" y="576"/>
      <point x="534" y="478"/>
      <point x="514" y="432" type="curve" smooth="yes"/>
      <point x="507" y="413"/>
      <point x="503" y="416"/>
      <point x="496" y="432" type="curve" smooth="yes"/>
      <point x="487" y="451"/>
      <point x="436" y="570"/>
      <point x="426" y="600" type="curve" smooth="yes"/>
      <point x="425" y="603"/>
      <point x="424" y="606"/>
      <point x="424" y="609" type="curve" smooth="yes"/>
      <point x="424" y="630"/>
      <point x="473" y="633"/>
      <point x="473" y="644" type="curve" smooth="yes"/>
      <point x="473" y="650"/>
      <point x="460" y="652"/>
      <point x="442" y="652" type="curve" smooth="yes"/>
      <point x="430" y="652"/>
      <point x="407" y="650"/>
      <point x="381" y="650" type="curve" smooth="yes"/>
      <point x="350" y="650"/>
      <point x="328" y="653"/>
      <point x="298" y="653" type="curve" smooth="yes"/>
      <point x="285" y="653"/>
      <point x="276" y="651"/>
      <point x="276" y="646" type="curve" smooth="yes"/>
      <point x="276" y="639"/>
      <point x="286" y="634"/>
      <point x="306" y="630" type="curve" smooth="yes"/>
      <point x="352" y="624"/>
      <point x="380" y="604"/>
      <point x="396" y="569" type="curve" smooth="yes"/>
      <point x="470" y="392" type="line" smooth="yes"/>
      <point x="475" y="379"/>
      <point x="478" y="371"/>
      <point x="478" y="363" type="curve" smooth="yes"/>
      <point x="478" y="357"/>
      <point x="476" y="350"/>
      <point x="472" y="340" type="curve" smooth="yes"/>
      <point x="369" y="82" type="line"/>
      <point x="364" y="69"/>
      <point x="360" y="65"/>
      <point x="352" y="83" type="curve" smooth="yes"/>
      <point x="274" y="260"/>
      <point x="229" y="362"/>
      <point x="149" y="565" type="curve"/>
      <point x="147" y="571"/>
      <point x="140" y="589"/>
      <point x="140" y="605" type="curve" smooth="yes"/>
      <point x="140" y="616"/>
      <point x="148" y="627"/>
      <point x="168" y="629" type="curve" smooth="yes"/>
      <point x="196" y="634"/>
      <point x="208" y="637"/>
      <point x="208" y="644" type="curve" smooth="yes"/>
      <point x="208" y="650"/>
      <point x="198" y="652"/>
      <point x="182" y="652" type="curve" smooth="yes"/>
      <point x="165" y="652"/>
      <point x="134" y="650"/>
      <point x="102" y="650" type="curve" smooth="yes"/>
      <point x="72" y="650"/>
      <point x="52" y="653"/>
      <point x="22" y="653" type="curve" smooth="yes"/>
      <point x="9" y="653"/>
      <point x="0" y="651"/>
      <point x="0" y="646" type="curve" smooth="yes"/>
      <point x="0" y="639"/>
      <point x="10" y="635"/>
      <point x="30" y="631" type="curve" smooth="yes"/>
      <point x="61" y="623"/>
      <point x="82" y="612"/>
      <point x="95" y="585" type="curve"/>
      <point x="331" y="12" type="line" smooth="yes"/>
      <point x="337" y="-1"/>
      <point x="343" y="-16"/>
    </contour>
  </outline>
</glyph>
<glyph name="X" format="1">
  <advance width="684"/>
  <unicode hex="0058"/>
  <outline>
    <contour>
      <point x="25" y="-5" type="curve" smooth="yes"/>
      <point x="59" y="-5"/>
      <point x="109" y="1"/>
      <point x="155" y="1" type="curve" smooth="yes"/>
      <point x="191" y="1"/>
      <point x="226" y="-1"/>
      <point x="244" y="-1" type="curve" smooth="yes"/>
      <point x="261" y="-1"/>
      <point x="273" y="2"/>
      <point x="273" y="7" type="curve" smooth="yes"/>
      <point x="273" y="14"/>
      <point x="263" y="18"/>
      <point x="240" y="22" type="curve"/>
      <point x="201" y="29"/>
      <point x="179" y="38"/>
      <point x="179" y="56" type="curve" smooth="yes"/>
      <point x="179" y="64"/>
      <point x="184" y="74"/>
      <point x="194" y="88" type="curve" smooth="yes"/>
      <point x="332" y="288" type="line" smooth="yes"/>
      <point x="339" y="297"/>
      <point x="345" y="297"/>
      <point x="355" y="283" type="curve" smooth="yes"/>
      <point x="486" y="103" type="line"/>
      <point x="495" y="91"/>
      <point x="498" y="80"/>
      <point x="498" y="70" type="curve" smooth="yes"/>
      <point x="498" y="45"/>
      <point x="480" y="30"/>
      <point x="448" y="24" type="curve" smooth="yes"/>
      <point x="434" y="21"/>
      <point x="414" y="16"/>
      <point x="414" y="9" type="curve" smooth="yes"/>
      <point x="414" y="3"/>
      <point x="425" y="1"/>
      <point x="440" y="1" type="curve" smooth="yes"/>
      <point x="460" y="1"/>
      <point x="491" y="2"/>
      <point x="526" y="2" type="curve" smooth="yes"/>
      <point x="567" y="2"/>
      <point x="626" y="-4"/>
      <point x="650" y="-4" type="curve" smooth="yes"/>
      <point x="665" y="-4"/>
      <point x="675" y="-2"/>
      <point x="675" y="4" type="curve" smooth="yes"/>
      <point x="675" y="11"/>
      <point x="665" y="14"/>
      <point x="641" y="19" type="curve" smooth="yes"/>
      <point x="608" y="25"/>
      <point x="568" y="60"/>
      <point x="537" y="102" type="curve" smooth="yes"/>
      <point x="374" y="326" type="line"/>
      <point x="367" y="341"/>
      <point x="373" y="344"/>
      <point x="388" y="366" type="curve" smooth="yes"/>
      <point x="503" y="529" type="line" smooth="yes"/>
      <point x="545" y="590"/>
      <point x="593" y="624"/>
      <point x="638" y="632" type="curve" smooth="yes"/>
      <point x="662" y="636"/>
      <point x="672" y="639"/>
      <point x="672" y="646" type="curve" smooth="yes"/>
      <point x="672" y="652"/>
      <point x="660" y="654"/>
      <point x="642" y="654" type="curve" smooth="yes"/>
      <point x="614" y="654"/>
      <point x="565" y="650"/>
      <point x="524" y="650" type="curve" smooth="yes"/>
      <point x="494" y="650"/>
      <point x="467" y="651"/>
      <point x="442" y="651" type="curve" smooth="yes"/>
      <point x="425" y="651"/>
      <point x="412" y="648"/>
      <point x="412" y="643" type="curve" smooth="yes"/>
      <point x="412" y="636"/>
      <point x="432" y="630"/>
      <point x="447" y="628" type="curve" smooth="yes"/>
      <point x="488" y="624"/>
      <point x="504" y="611"/>
      <point x="504" y="596" type="curve" smooth="yes"/>
      <point x="504" y="583"/>
      <point x="491" y="566"/>
      <point x="478" y="545" type="curve" smooth="yes"/>
      <point x="366" y="379" type="line" smooth="yes"/>
      <point x="356" y="363"/>
      <point x="350" y="361"/>
      <point x="335" y="382" type="curve" smooth="yes"/>
      <point x="216" y="541" type="line" smooth="yes"/>
      <point x="193" y="573"/>
      <point x="183" y="590"/>
      <point x="183" y="602" type="curve" smooth="yes"/>
      <point x="183" y="618"/>
      <point x="206" y="624"/>
      <point x="240" y="631" type="curve" smooth="yes"/>
      <point x="263" y="635"/>
      <point x="273" y="639"/>
      <point x="273" y="645" type="curve" smooth="yes"/>
      <point x="273" y="651"/>
      <point x="263" y="653"/>
      <point x="249" y="653" type="curve" smooth="yes"/>
      <point x="234" y="653"/>
      <point x="201" y="651"/>
      <point x="168" y="651" type="curve" smooth="yes"/>
      <point x="124" y="651"/>
      <point x="72" y="655"/>
      <point x="44" y="655" type="curve" smooth="yes"/>
      <point x="29" y="655"/>
      <point x="19" y="653"/>
      <point x="19" y="647" type="curve" smooth="yes"/>
      <point x="19" y="641"/>
      <point x="30" y="636"/>
      <point x="53" y="631" type="curve" smooth="yes"/>
      <point x="85" y="624"/>
      <point x="115" y="607"/>
      <point x="166" y="539" type="curve" smooth="yes"/>
      <point x="307" y="351" type="line" smooth="yes"/>
      <point x="327" y="324"/>
      <point x="316" y="309"/>
      <point x="301" y="289" type="curve"/>
      <point x="181" y="116" type="line" smooth="yes"/>
      <point x="142" y="62"/>
      <point x="65" y="29"/>
      <point x="33" y="22" type="curve" smooth="yes"/>
      <point x="6" y="15"/>
      <point x="-5" y="10"/>
      <point x="-5" y="3" type="curve" smooth="yes"/>
      <point x="-5" y="-2"/>
      <point x="7" y="-5"/>
    </contour>
  </outline>
</glyph>
<glyph name="Y" format="1">
  <advance width="543"/>
  <unicode hex="0059"/>
  <outline>
    <contour>
      <point x="170" y="-5" type="curve" smooth="yes"/>
      <point x="215" y="-5"/>
      <point x="236" y="-2"/>
      <point x="278" y="-2" type="curve" smooth="yes"/>
      <point x="317" y="-2"/>
      <point x="332" y="-5"/>
      <point x="378" y="-5" type="curve" smooth="yes"/>
      <point x="395" y="-5"/>
      <point x="407" y="-3"/>
      <point x="407" y="3" type="curve" smooth="yes"/>
      <point x="407" y="9"/>
      <point x="397" y="12"/>
      <point x="373" y="15" type="curve" smooth="yes"/>
      <point x="323" y="21"/>
      <point x="293" y="41"/>
      <point x="293" y="78" type="curve" smooth="yes"/>
      <point x="293" y="254" type="line" smooth="yes"/>
      <point x="293" y="293"/>
      <point x="292" y="301"/>
      <point x="319" y="344" type="curve" smooth="yes"/>
      <point x="367" y="419"/>
      <point x="388" y="457"/>
      <point x="442" y="540" type="curve" smooth="yes"/>
      <point x="478" y="596"/>
      <point x="498" y="619"/>
      <point x="533" y="627" type="curve" smooth="yes"/>
      <point x="560" y="634"/>
      <point x="586" y="639"/>
      <point x="586" y="645" type="curve" smooth="yes"/>
      <point x="586" y="651"/>
      <point x="574" y="653"/>
      <point x="557" y="653" type="curve" smooth="yes"/>
      <point x="533" y="653"/>
      <point x="493" y="651"/>
      <point x="451" y="651" type="curve" smooth="yes"/>
      <point x="421" y="651"/>
      <point x="405" y="651"/>
      <point x="374" y="651" type="curve" smooth="yes"/>
      <point x="357" y="651"/>
      <point x="345" y="649"/>
      <point x="345" y="644" type="curve" smooth="yes"/>
      <point x="345" y="638"/>
      <point x="364" y="631"/>
      <point x="378" y="630" type="curve" smooth="yes"/>
      <point x="410" y="627"/>
      <point x="432" y="617"/>
      <point x="432" y="593" type="curve" smooth="yes"/>
      <point x="432" y="582"/>
      <point x="426" y="567"/>
      <point x="415" y="548" type="curve" smooth="yes"/>
      <point x="380" y="488"/>
      <point x="352" y="438"/>
      <point x="321" y="391" type="curve" smooth="yes"/>
      <point x="302" y="363"/>
      <point x="293" y="346"/>
      <point x="285" y="346" type="curve" smooth="yes"/>
      <point x="279" y="346"/>
      <point x="271" y="358"/>
      <point x="256" y="384" type="curve" smooth="yes"/>
      <point x="146" y="577" type="line" smooth="yes"/>
      <point x="138" y="591"/>
      <point x="133" y="601"/>
      <point x="133" y="609" type="curve" smooth="yes"/>
      <point x="133" y="623"/>
      <point x="150" y="627"/>
      <point x="176" y="630" type="curve" smooth="yes"/>
      <point x="199" y="634"/>
      <point x="210" y="638"/>
      <point x="210" y="644" type="curve" smooth="yes"/>
      <point x="210" y="649"/>
      <point x="200" y="652"/>
      <point x="186" y="652" type="curve" smooth="yes"/>
      <point x="169" y="652"/>
      <point x="145" y="650"/>
      <point x="120" y="650" type="curve" smooth="yes"/>
      <point x="82" y="650"/>
      <point x="49" y="652"/>
      <point x="24" y="652" type="curve" smooth="yes"/>
      <point x="10" y="652"/>
      <point x="0" y="650"/>
      <point x="0" y="645" type="curve" smooth="yes"/>
      <point x="0" y="638"/>
      <point x="11" y="636"/>
      <point x="34" y="630" type="curve" smooth="yes"/>
      <point x="66" y="620"/>
      <point x="96" y="573"/>
      <point x="111" y="548" type="curve" smooth="yes"/>
      <point x="230" y="349" type="line"/>
      <point x="235" y="341"/>
      <point x="253" y="304"/>
      <point x="253" y="282" type="curve" smooth="yes"/>
      <point x="253" y="78" type="line" smooth="yes"/>
      <point x="253" y="39"/>
      <point x="225" y="21"/>
      <point x="174" y="15" type="curve" smooth="yes"/>
      <point x="151" y="12"/>
      <point x="141" y="9"/>
      <point x="141" y="3" type="curve" smooth="yes"/>
      <point x="141" y="-3"/>
      <point x="153" y="-5"/>
    </contour>
  </outline>
</glyph>
<glyph name="Z" format="1">
  <advance width="624"/>
  <unicode hex="005A"/>
  <outline>
    <contour>
      <point x="552" y="-5" type="curve" smooth="yes"/>
      <point x="562" y="-5"/>
      <point x="566" y="4"/>
      <point x="571" y="12" type="curve" smooth="yes"/>
      <point x="582" y="36"/>
      <point x="609" y="147"/>
      <point x="609" y="158" type="curve" smooth="yes"/>
      <point x="609" y="167"/>
      <point x="606" y="171"/>
      <point x="600" y="171" type="curve" smooth="yes"/>
      <point x="589" y="171"/>
      <point x="580" y="158"/>
      <point x="577" y="149" type="curve" smooth="yes"/>
      <point x="550" y="73"/>
      <point x="510" y="34"/>
      <point x="448" y="29" type="curve" smooth="yes"/>
      <point x="389" y="25"/>
      <point x="327" y="24"/>
      <point x="269" y="24" type="curve" smooth="yes"/>
      <point x="214" y="24"/>
      <point x="165" y="26"/>
      <point x="133" y="29" type="curve"/>
      <point x="120" y="30"/>
      <point x="115" y="38"/>
      <point x="115" y="46" type="curve" smooth="yes"/>
      <point x="115" y="50"/>
      <point x="116" y="55"/>
      <point x="118" y="58" type="curve" smooth="yes"/>
      <point x="256" y="230"/>
      <point x="381" y="380"/>
      <point x="523" y="550" type="curve" smooth="yes"/>
      <point x="590" y="631" type="line" smooth="yes"/>
      <point x="594" y="636"/>
      <point x="585" y="649"/>
      <point x="579" y="649" type="curve" smooth="yes"/>
      <point x="502" y="647"/>
      <point x="426" y="646"/>
      <point x="340" y="646" type="curve" smooth="yes"/>
      <point x="293" y="646"/>
      <point x="243" y="646"/>
      <point x="209" y="646" type="curve" smooth="yes"/>
      <point x="174" y="646"/>
      <point x="134" y="656"/>
      <point x="120" y="662" type="curve" smooth="yes"/>
      <point x="109" y="667"/>
      <point x="93" y="676"/>
      <point x="88" y="676" type="curve" smooth="yes"/>
      <point x="83" y="676"/>
      <point x="74" y="674"/>
      <point x="72" y="659" type="curve" smooth="yes"/>
      <point x="69" y="617"/>
      <point x="52" y="563"/>
      <point x="46" y="542" type="curve"/>
      <point x="43" y="533"/>
      <point x="39" y="522"/>
      <point x="39" y="514" type="curve" smooth="yes"/>
      <point x="39" y="507"/>
      <point x="43" y="503"/>
      <point x="49" y="503" type="curve" smooth="yes"/>
      <point x="64" y="505"/>
      <point x="73" y="527"/>
      <point x="77" y="540" type="curve"/>
      <point x="95" y="586"/>
      <point x="134" y="615"/>
      <point x="181" y="619" type="curve" smooth="yes"/>
      <point x="210" y="621"/>
      <point x="255" y="621"/>
      <point x="302" y="621" type="curve" smooth="yes"/>
      <point x="367" y="621"/>
      <point x="447" y="620"/>
      <point x="491" y="619" type="curve"/>
      <point x="510" y="618"/>
      <point x="515" y="615"/>
      <point x="515" y="611" type="curve" smooth="yes"/>
      <point x="515" y="608"/>
      <point x="513" y="606"/>
      <point x="510" y="603" type="curve" smooth="yes"/>
      <point x="370" y="429"/>
      <point x="240" y="276"/>
      <point x="96" y="104" type="curve" smooth="yes"/>
      <point x="70" y="73"/>
      <point x="29" y="21"/>
      <point x="29" y="11" type="curve"/>
      <point x="29" y="11"/>
      <point x="30" y="-3"/>
      <point x="36" y="-3" type="curve" smooth="yes"/>
      <point x="116" y="-3" type="line" smooth="yes"/>
      <point x="155" y="-3"/>
      <point x="198" y="-2"/>
      <point x="239" y="-2" type="curve" smooth="yes"/>
      <point x="331" y="-2"/>
      <point x="434" y="-5"/>
    </contour>
  </outline>
</glyph>
<glyph name="asciicircum" format="1">
  <advance width="518"/>
  <unicode hex="005E"/>
  <outline>
    <contour>
      <point x="54" y="284" type="curve" smooth="yes"/>
      <point x="62" y="284"/>
      <point x="76" y="289"/>
      <point x="82" y="297" type="curve" smooth="yes"/>
      <point x="254" y="546" type="line"/>
      <point x="257" y="549"/>
      <point x="258" y="549"/>
      <point x="261" y="546" type="curve"/>
      <point x="438" y="297" type="line" smooth="yes"/>
      <point x="442" y="290"/>
      <point x="456" y="284"/>
      <point x="465" y="284" type="curve" smooth="yes"/>
      <point x="471" y="284"/>
      <point x="473" y="294"/>
      <point x="469" y="299" type="curve"/>
      <point x="259" y="604" type="line"/>
      <point x="257" y="604" type="line"/>
      <point x="50" y="298" type="line"/>
      <point x="49" y="296"/>
      <point x="48" y="294"/>
      <point x="48" y="291" type="curve" smooth="yes"/>
      <point x="48" y="287"/>
      <point x="51" y="284"/>
    </contour>
  </outline>
</glyph>
<glyph name="underscore" format="1">
  <advance width="518"/>
  <unicode hex="005F"/>
  <outline>
    <contour>
      <point x="9" y="-174" type="curve" smooth="yes"/>
      <point x="497" y="-174" type="line" smooth="yes"/>
      <point x="508" y="-174"/>
      <point x="518" y="-158"/>
      <point x="518" y="-149" type="curve" smooth="yes"/>
      <point x="518" y="-145"/>
      <point x="513" y="-141"/>
      <point x="509" y="-141" type="curve" smooth="yes"/>
      <point x="16" y="-141" type="line" smooth="yes"/>
      <point x="4" y="-141"/>
      <point x="0" y="-161"/>
      <point x="0" y="-166" type="curve" smooth="yes"/>
      <point x="0" y="-170"/>
      <point x="5" y="-174"/>
    </contour>
  </outline>
</glyph>
<glyph name="grave" format="1">
  <advance width="187"/>
  <unicode hex="0060"/>
  <outline>
    <contour>
      <point x="159" y="432" type="curve" smooth="yes"/>
      <point x="163" y="432"/>
      <point x="165" y="434"/>
      <point x="165" y="443" type="curve" smooth="yes"/>
      <point x="165" y="448"/>
      <point x="161" y="455"/>
      <point x="157" y="464" type="curve" smooth="yes"/>
      <point x="137" y="502"/>
      <point x="98" y="569"/>
      <point x="68" y="616" type="curve" smooth="yes"/>
      <point x="61" y="626"/>
      <point x="55" y="634"/>
      <point x="47" y="634" type="curve" smooth="yes"/>
      <point x="33" y="634"/>
      <point x="23" y="629"/>
      <point x="23" y="621" type="curve" smooth="yes"/>
      <point x="23" y="615"/>
      <point x="29" y="606"/>
      <point x="34" y="598" type="curve" smooth="yes"/>
      <point x="58" y="559"/>
      <point x="109" y="486"/>
      <point x="141" y="446" type="curve" smooth="yes"/>
      <point x="148" y="438"/>
      <point x="156" y="432"/>
    </contour>
  </outline>
</glyph>
<glyph name="d" format="1">
  <advance width="454"/>
  <unicode hex="0064"/>
  <outline>
    <contour>
      <point x="338" y="-19" type="curve" smooth="yes"/>
      <point x="341" y="-19"/>
      <point x="342" y="-19"/>
      <point x="351" y="-13" type="curve" smooth="yes"/>
      <point x="386" y="7"/>
      <point x="413" y="16"/>
      <point x="441" y="21" type="curve" smooth="yes"/>
      <point x="447" y="21"/>
      <point x="452" y="27"/>
      <point x="452" y="34" type="curve" smooth="yes"/>
      <point x="452" y="40"/>
      <point x="447" y="41"/>
      <point x="434" y="40" type="curve" smooth="yes"/>
      <point x="417" y="39"/>
      <point x="398" y="38"/>
      <point x="391" y="38" type="curve" smooth="yes"/>
      <point x="376" y="38"/>
      <point x="370" y="54"/>
      <point x="370" y="93" type="curve" smooth="yes"/>
      <point x="370" y="562" type="line" smooth="yes"/>
      <point x="370" y="652"/>
      <point x="375" y="686"/>
      <point x="375" y="698" type="curve"/>
      <point x="374" y="702"/>
      <point x="373" y="704"/>
      <point x="370" y="704" type="curve" smooth="yes"/>
      <point x="368" y="704"/>
      <point x="364" y="703"/>
      <point x="360" y="701" type="curve" smooth="yes"/>
      <point x="346" y="693"/>
      <point x="323" y="682"/>
      <point x="280" y="667" type="curve" smooth="yes"/>
      <point x="276" y="665"/>
      <point x="275" y="661"/>
      <point x="275" y="658" type="curve" smooth="yes"/>
      <point x="275" y="654"/>
      <point x="278" y="650"/>
      <point x="284" y="649" type="curve" smooth="yes"/>
      <point x="319" y="645"/>
      <point x="335" y="636"/>
      <point x="335" y="592" type="curve" smooth="yes"/>
      <point x="335" y="392" type="line" smooth="yes"/>
      <point x="335" y="374"/>
      <point x="331" y="369"/>
      <point x="328" y="369" type="curve" smooth="yes"/>
      <point x="325" y="369"/>
      <point x="322" y="368"/>
      <point x="316" y="372" type="curve" smooth="yes"/>
      <point x="299" y="383"/>
      <point x="268" y="393"/>
      <point x="239" y="393" type="curve" smooth="yes"/>
      <point x="118" y="393"/>
      <point x="36" y="309"/>
      <point x="36" y="180" type="curve" smooth="yes"/>
      <point x="36" y="84"/>
      <point x="103" y="-14"/>
      <point x="211" y="-14" type="curve" smooth="yes"/>
      <point x="273" y="-14"/>
      <point x="316" y="34"/>
      <point x="334" y="65" type="curve"/>
      <point x="334" y="48" type="line" smooth="yes"/>
      <point x="334" y="32"/>
      <point x="329" y="3"/>
      <point x="329" y="-10" type="curve" smooth="yes"/>
      <point x="329" y="-12"/>
      <point x="335" y="-19"/>
    </contour>
    <contour>
      <point x="233" y="26" type="curve" smooth="yes"/>
      <point x="186" y="26"/>
      <point x="73" y="48"/>
      <point x="73" y="201" type="curve" smooth="yes"/>
      <point x="73" y="335"/>
      <point x="155" y="370"/>
      <point x="204" y="370" type="curve" smooth="yes"/>
      <point x="290" y="370"/>
      <point x="335" y="327"/>
      <point x="335" y="272" type="curve" smooth="yes"/>
      <point x="334" y="74" type="line"/>
      <point x="307" y="45"/>
      <point x="270" y="26"/>
    </contour>
  </outline>
</glyph>
<glyph name="f" format="1">
  <advance width="293"/>
  <unicode hex="0066"/>
  <outline>
    <contour>
      <point x="42" y="-3" type="curve" smooth="yes"/>
      <point x="77" y="-3"/>
      <point x="83" y="2"/>
      <point x="113" y="2" type="curve" smooth="yes"/>
      <point x="144" y="2"/>
      <point x="166" y="-3"/>
      <point x="200" y="-3" type="curve" smooth="yes"/>
      <point x="212" y="-3"/>
      <point x="218" y="-1"/>
      <point x="218" y="4" type="curve" smooth="yes"/>
      <point x="218" y="12"/>
      <point x="209" y="15"/>
      <point x="194" y="16" type="curve" smooth="yes"/>
      <point x="138" y="22"/>
      <point x="127" y="29"/>
      <point x="127" y="53" type="curve" smooth="yes"/>
      <point x="127" y="339" type="line" smooth="yes"/>
      <point x="127" y="344"/>
      <point x="130" y="348"/>
      <point x="147" y="348" type="curve" smooth="yes"/>
      <point x="265" y="348" type="line" smooth="yes"/>
      <point x="268" y="348"/>
      <point x="272" y="349"/>
      <point x="274" y="353" type="curve" smooth="yes"/>
      <point x="277" y="358"/>
      <point x="280" y="366"/>
      <point x="280" y="372" type="curve" smooth="yes"/>
      <point x="280" y="375"/>
      <point x="274" y="380"/>
      <point x="267" y="380" type="curve" smooth="yes"/>
      <point x="139" y="380" type="line" smooth="yes"/>
      <point x="132" y="380"/>
      <point x="127" y="381"/>
      <point x="127" y="390" type="curve" smooth="yes"/>
      <point x="127" y="483" type="line" smooth="yes"/>
      <point x="127" y="608"/>
      <point x="179" y="674"/>
      <point x="238" y="674" type="curve" smooth="yes"/>
      <point x="281" y="674"/>
      <point x="305" y="656"/>
      <point x="328" y="629" type="curve" smooth="yes"/>
      <point x="340" y="616"/>
      <point x="351" y="606"/>
      <point x="363" y="606" type="curve" smooth="yes"/>
      <point x="382" y="606"/>
      <point x="399" y="618"/>
      <point x="399" y="645" type="curve" smooth="yes"/>
      <point x="399" y="678"/>
      <point x="361" y="706"/>
      <point x="297" y="706" type="curve" smooth="yes"/>
      <point x="193" y="706"/>
      <point x="92" y="650"/>
      <point x="92" y="429" type="curve" smooth="yes"/>
      <point x="92" y="386" type="line"/>
      <point x="71" y="379"/>
      <point x="56" y="374"/>
      <point x="32" y="366" type="curve" smooth="yes"/>
      <point x="30" y="365"/>
      <point x="25" y="363"/>
      <point x="25" y="361" type="curve" smooth="yes"/>
      <point x="25" y="356"/>
      <point x="35" y="348"/>
      <point x="39" y="348" type="curve"/>
      <point x="61" y="346"/>
      <point x="79" y="346"/>
      <point x="92" y="346" type="curve"/>
      <point x="92" y="53" type="line" smooth="yes"/>
      <point x="92" y="29"/>
      <point x="80" y="22"/>
      <point x="49" y="16" type="curve" smooth="yes"/>
      <point x="34" y="14"/>
      <point x="25" y="12"/>
      <point x="25" y="4" type="curve" smooth="yes"/>
      <point x="25" y="-1"/>
      <point x="31" y="-3"/>
    </contour>
  </outline>
</glyph>
<glyph name="h" format="1">
  <advance width="462"/>
  <unicode hex="0068"/>
  <outline>
    <contour>
      <point x="40" y="-3" type="curve" smooth="yes"/>
      <point x="71" y="-3"/>
      <point x="76" y="0"/>
      <point x="103" y="0" type="curve" smooth="yes"/>
      <point x="131" y="0"/>
      <point x="132" y="-3"/>
      <point x="164" y="-3" type="curve" smooth="yes"/>
      <point x="179" y="-3"/>
      <point x="184" y="-1"/>
      <point x="184" y="5" type="curve" smooth="yes"/>
      <point x="184" y="10"/>
      <point x="176" y="13"/>
      <point x="161" y="16" type="curve" smooth="yes"/>
      <point x="141" y="20"/>
      <point x="122" y="26"/>
      <point x="122" y="45" type="curve" smooth="yes"/>
      <point x="122" y="257" type="line" smooth="yes"/>
      <point x="122" y="297"/>
      <point x="128" y="311"/>
      <point x="149" y="327" type="curve" smooth="yes"/>
      <point x="170" y="343"/>
      <point x="211" y="350"/>
      <point x="241" y="350" type="curve" smooth="yes"/>
      <point x="288" y="350"/>
      <point x="340" y="310"/>
      <point x="340" y="260" type="curve" smooth="yes"/>
      <point x="340" y="45" type="line" smooth="yes"/>
      <point x="340" y="27"/>
      <point x="318" y="20"/>
      <point x="298" y="16" type="curve" smooth="yes"/>
      <point x="282" y="13"/>
      <point x="275" y="10"/>
      <point x="275" y="5" type="curve" smooth="yes"/>
      <point x="275" y="-1"/>
      <point x="282" y="-3"/>
      <point x="295" y="-3" type="curve" smooth="yes"/>
      <point x="326" y="-3"/>
      <point x="330" y="0"/>
      <point x="357" y="0" type="curve" smooth="yes"/>
      <point x="385" y="0"/>
      <point x="387" y="-3"/>
      <point x="418" y="-3" type="curve" smooth="yes"/>
      <point x="433" y="-3"/>
      <point x="439" y="-1"/>
      <point x="439" y="5" type="curve" smooth="yes"/>
      <point x="439" y="10"/>
      <point x="430" y="13"/>
      <point x="416" y="16" type="curve" smooth="yes"/>
      <point x="396" y="20"/>
      <point x="376" y="27"/>
      <point x="375" y="45" type="curve" smooth="yes"/>
      <point x="375" y="258" type="line" smooth="yes"/>
      <point x="375" y="336"/>
      <point x="330" y="394"/>
      <point x="270" y="394" type="curve" smooth="yes"/>
      <point x="201" y="394"/>
      <point x="139" y="337"/>
      <point x="115" y="320" type="curve"/>
      <point x="133" y="324" type="line"/>
      <point x="124" y="338"/>
      <point x="122" y="342"/>
      <point x="122" y="368" type="curve" smooth="yes"/>
      <point x="122" y="562" type="line" smooth="yes"/>
      <point x="122" y="669"/>
      <point x="131" y="686"/>
      <point x="131" y="698" type="curve" smooth="yes"/>
      <point x="131" y="702"/>
      <point x="128" y="705"/>
      <point x="124" y="705" type="curve" smooth="yes"/>
      <point x="122" y="705"/>
      <point x="120" y="704"/>
      <point x="117" y="701" type="curve" smooth="yes"/>
      <point x="95" y="688"/>
      <point x="60" y="673"/>
      <point x="41" y="667" type="curve" smooth="yes"/>
      <point x="35" y="666"/>
      <point x="33" y="662"/>
      <point x="33" y="658" type="curve" smooth="yes"/>
      <point x="33" y="653"/>
      <point x="36" y="649"/>
      <point x="42" y="649" type="curve" smooth="yes"/>
      <point x="76" y="644"/>
      <point x="87" y="623"/>
      <point x="87" y="598" type="curve" smooth="yes"/>
      <point x="87" y="45" type="line" smooth="yes"/>
      <point x="86" y="26"/>
      <point x="63" y="20"/>
      <point x="43" y="16" type="curve" smooth="yes"/>
      <point x="26" y="13"/>
      <point x="20" y="10"/>
      <point x="20" y="5" type="curve" smooth="yes"/>
      <point x="20" y="-1"/>
      <point x="28" y="-3"/>
    </contour>
  </outline>
</glyph>
<glyph name="i" format="1">
  <advance width="213"/>
  <unicode hex="0069"/>
  <outline>
    <contour>
      <point x="42" y="-3" type="curve" smooth="yes"/>
      <point x="74" y="-3"/>
      <point x="80" y="2"/>
      <point x="110" y="2" type="curve" smooth="yes"/>
      <point x="139" y="2"/>
      <point x="145" y="-3"/>
      <point x="177" y="-3" type="curve" smooth="yes"/>
      <point x="188" y="-3"/>
      <point x="194" y="0"/>
      <point x="194" y="5" type="curve" smooth="yes"/>
      <point x="194" y="11"/>
      <point x="182" y="14"/>
      <point x="170" y="17" type="curve" smooth="yes"/>
      <point x="143" y="22"/>
      <point x="127" y="28"/>
      <point x="127" y="47" type="curve" smooth="yes"/>
      <point x="127" y="272" type="line" smooth="yes"/>
      <point x="127" y="316"/>
      <point x="136" y="390"/>
      <point x="136" y="406" type="curve" smooth="yes"/>
      <point x="136" y="409"/>
      <point x="134" y="411"/>
      <point x="130" y="411" type="curve" smooth="yes"/>
      <point x="127" y="411"/>
      <point x="123" y="408"/>
      <point x="120" y="404" type="curve" smooth="yes"/>
      <point x="107" y="388"/>
      <point x="84" y="363"/>
      <point x="43" y="350" type="curve" smooth="yes"/>
      <point x="39" y="348"/>
      <point x="36" y="346"/>
      <point x="36" y="341" type="curve" smooth="yes"/>
      <point x="36" y="335"/>
      <point x="39" y="332"/>
      <point x="46" y="331" type="curve" smooth="yes"/>
      <point x="80" y="326"/>
      <point x="92" y="299"/>
      <point x="92" y="267" type="curve" smooth="yes"/>
      <point x="92" y="47" type="line" smooth="yes"/>
      <point x="92" y="27"/>
      <point x="76" y="22"/>
      <point x="48" y="17" type="curve" smooth="yes"/>
      <point x="37" y="14"/>
      <point x="25" y="12"/>
      <point x="25" y="5" type="curve" smooth="yes"/>
      <point x="25" y="0"/>
      <point x="32" y="-3"/>
    </contour>
    <contour>
      <point x="108" y="508" type="curve" smooth="yes"/>
      <point x="130" y="508"/>
      <point x="145" y="523"/>
      <point x="145" y="543" type="curve" smooth="yes"/>
      <point x="145" y="565"/>
      <point x="130" y="580"/>
      <point x="108" y="580" type="curve" smooth="yes"/>
      <point x="88" y="580"/>
      <point x="73" y="565"/>
      <point x="73" y="543" type="curve" smooth="yes"/>
      <point x="73" y="523"/>
      <point x="88" y="508"/>
    </contour>
  </outline>
</glyph>
<glyph name="j" format="1">
  <advance width="193"/>
  <unicode hex="006A"/>
  <outline>
    <contour>
      <point x="-3" y="-287" type="curve" smooth="yes"/>
      <point x="32" y="-287"/>
      <point x="81" y="-220"/>
      <point x="101" y="-152" type="curve" smooth="yes"/>
      <point x="123" y="-72"/>
      <point x="124" y="29"/>
      <point x="124" y="91" type="curve" smooth="yes"/>
      <point x="124" y="252" type="line" smooth="yes"/>
      <point x="124" y="297"/>
      <point x="127" y="365"/>
      <point x="131" y="406" type="curve"/>
      <point x="131" y="409"/>
      <point x="128" y="411"/>
      <point x="124" y="411" type="curve" smooth="yes"/>
      <point x="123" y="411"/>
      <point x="119" y="407"/>
      <point x="114" y="402" type="curve" smooth="yes"/>
      <point x="102" y="389"/>
      <point x="83" y="364"/>
      <point x="40" y="349" type="curve" smooth="yes"/>
      <point x="37" y="348"/>
      <point x="34" y="344"/>
      <point x="34" y="341" type="curve" smooth="yes"/>
      <point x="34" y="337"/>
      <point x="37" y="332"/>
      <point x="43" y="332" type="curve" smooth="yes"/>
      <point x="77" y="328"/>
      <point x="89" y="300"/>
      <point x="89" y="269" type="curve" smooth="yes"/>
      <point x="89" y="49" type="line" smooth="yes"/>
      <point x="89" y="-20"/>
      <point x="86" y="-156"/>
      <point x="57" y="-217" type="curve" smooth="yes"/>
      <point x="38" y="-257"/>
      <point x="15" y="-244"/>
      <point x="-16" y="-251" type="curve"/>
      <point x="-19" y="-252"/>
      <point x="-31" y="-263"/>
      <point x="-31" y="-274" type="curve" smooth="yes"/>
      <point x="-31" y="-283"/>
      <point x="-13" y="-287"/>
    </contour>
    <contour>
      <point x="103" y="508" type="curve" smooth="yes"/>
      <point x="125" y="508"/>
      <point x="140" y="523"/>
      <point x="140" y="543" type="curve" smooth="yes"/>
      <point x="140" y="565"/>
      <point x="125" y="580"/>
      <point x="103" y="580" type="curve" smooth="yes"/>
      <point x="83" y="580"/>
      <point x="68" y="565"/>
      <point x="68" y="543" type="curve" smooth="yes"/>
      <point x="68" y="523"/>
      <point x="83" y="508"/>
    </contour>
  </outline>
</glyph>
<glyph name="l" format="1">
  <advance width="208"/>
  <unicode hex="006C"/>
  <outline>
    <contour>
      <point x="36" y="-3" type="curve" smooth="yes"/>
      <point x="68" y="-3"/>
      <point x="75" y="2"/>
      <point x="104" y="2" type="curve" smooth="yes"/>
      <point x="133" y="2"/>
      <point x="140" y="-3"/>
      <point x="172" y="-3" type="curve" smooth="yes"/>
      <point x="178" y="-3"/>
      <point x="188" y="-2"/>
      <point x="188" y="4" type="curve" smooth="yes"/>
      <point x="188" y="11"/>
      <point x="176" y="14"/>
      <point x="165" y="17" type="curve"/>
      <point x="145" y="21"/>
      <point x="122" y="25"/>
      <point x="122" y="49" type="curve" smooth="yes"/>
      <point x="122" y="562" type="line" smooth="yes"/>
      <point x="122" y="652"/>
      <point x="129" y="686"/>
      <point x="129" y="698" type="curve" smooth="yes"/>
      <point x="129" y="701"/>
      <point x="127" y="705"/>
      <point x="124" y="705" type="curve" smooth="yes"/>
      <point x="122" y="705"/>
      <point x="121" y="704"/>
      <point x="119" y="703" type="curve" smooth="yes"/>
      <point x="96" y="685"/>
      <point x="75" y="671"/>
      <point x="40" y="662" type="curve" smooth="yes"/>
      <point x="35" y="661"/>
      <point x="32" y="657"/>
      <point x="32" y="652" type="curve" smooth="yes"/>
      <point x="32" y="647"/>
      <point x="35" y="644"/>
      <point x="43" y="642" type="curve" smooth="yes"/>
      <point x="75" y="636"/>
      <point x="87" y="614"/>
      <point x="87" y="580" type="curve" smooth="yes"/>
      <point x="87" y="48" type="line" smooth="yes"/>
      <point x="87" y="25"/>
      <point x="63" y="21"/>
      <point x="43" y="17" type="curve"/>
      <point x="32" y="14"/>
      <point x="20" y="11"/>
      <point x="20" y="4" type="curve" smooth="yes"/>
      <point x="20" y="-2"/>
      <point x="30" y="-3"/>
    </contour>
  </outline>
</glyph>
<glyph name="q" format="1">
  <advance width="465"/>
  <unicode hex="0071"/>
  <outline>
    <contour>
      <point x="304" y="-285" type="curve" smooth="yes"/>
      <point x="338" y="-285"/>
      <point x="343" y="-280"/>
      <point x="372" y="-280" type="curve" smooth="yes"/>
      <point x="402" y="-280"/>
      <point x="414" y="-285"/>
      <point x="448" y="-285" type="curve" smooth="yes"/>
      <point x="455" y="-285"/>
      <point x="465" y="-284"/>
      <point x="465" y="-279" type="curve" smooth="yes"/>
      <point x="465" y="-272"/>
      <point x="453" y="-269"/>
      <point x="441" y="-267" type="curve"/>
      <point x="421" y="-263"/>
      <point x="389" y="-260"/>
      <point x="389" y="-239" type="curve" smooth="yes"/>
      <point x="389" y="281" type="line" smooth="yes"/>
      <point x="389" y="334"/>
      <point x="402" y="379"/>
      <point x="402" y="392" type="curve" smooth="yes"/>
      <point x="402" y="396"/>
      <point x="395" y="400"/>
      <point x="389" y="400" type="curve" smooth="yes"/>
      <point x="386" y="400"/>
      <point x="384" y="397"/>
      <point x="382" y="394" type="curve"/>
      <point x="377" y="382"/>
      <point x="372" y="373"/>
      <point x="360" y="373" type="curve" smooth="yes"/>
      <point x="348" y="373"/>
      <point x="305" y="394"/>
      <point x="247" y="394" type="curve" smooth="yes"/>
      <point x="121" y="394"/>
      <point x="36" y="309"/>
      <point x="36" y="175" type="curve" smooth="yes"/>
      <point x="36" y="56"/>
      <point x="125" y="-14"/>
      <point x="222" y="-14" type="curve" smooth="yes"/>
      <point x="271" y="-14"/>
      <point x="322" y="24"/>
      <point x="339" y="40" type="curve" smooth="yes"/>
      <point x="342" y="42"/>
      <point x="345" y="41"/>
      <point x="348" y="41" type="curve" smooth="yes"/>
      <point x="352" y="41"/>
      <point x="354" y="35"/>
      <point x="354" y="13" type="curve" smooth="yes"/>
      <point x="354" y="-240" type="line" smooth="yes"/>
      <point x="354" y="-260"/>
      <point x="331" y="-263"/>
      <point x="310" y="-267" type="curve"/>
      <point x="299" y="-269"/>
      <point x="287" y="-272"/>
      <point x="287" y="-279" type="curve" smooth="yes"/>
      <point x="287" y="-284"/>
      <point x="298" y="-285"/>
    </contour>
    <contour>
      <point x="242" y="29" type="curve" smooth="yes"/>
      <point x="176" y="29"/>
      <point x="77" y="62"/>
      <point x="77" y="200" type="curve" smooth="yes"/>
      <point x="77" y="311"/>
      <point x="149" y="373"/>
      <point x="226" y="373" type="curve" smooth="yes"/>
      <point x="305" y="373"/>
      <point x="351" y="335"/>
      <point x="354" y="266" type="curve" smooth="yes"/>
      <point x="355" y="240"/>
      <point x="355" y="106"/>
      <point x="355" y="69" type="curve"/>
      <point x="337" y="50"/>
      <point x="289" y="29"/>
    </contour>
  </outline>
</glyph>
<glyph name="r" format="1">
  <advance width="310"/>
  <unicode hex="0072"/>
  <outline>
    <contour>
      <point x="47" y="-3" type="curve" smooth="yes"/>
      <point x="80" y="-3"/>
      <point x="85" y="2"/>
      <point x="115" y="2" type="curve" smooth="yes"/>
      <point x="144" y="2"/>
      <point x="154" y="-3"/>
      <point x="188" y="-3" type="curve" smooth="yes"/>
      <point x="200" y="-3"/>
      <point x="205" y="0"/>
      <point x="205" y="5" type="curve" smooth="yes"/>
      <point x="205" y="11"/>
      <point x="195" y="13"/>
      <point x="181" y="15" type="curve" smooth="yes"/>
      <point x="148" y="21"/>
      <point x="128" y="28"/>
      <point x="128" y="44" type="curve" smooth="yes"/>
      <point x="128" y="258" type="line" smooth="yes"/>
      <point x="128" y="320"/>
      <point x="168" y="339"/>
      <point x="202" y="339" type="curve" smooth="yes"/>
      <point x="212" y="339"/>
      <point x="224" y="331"/>
      <point x="235" y="324" type="curve" smooth="yes"/>
      <point x="247" y="316"/>
      <point x="257" y="308"/>
      <point x="265" y="308" type="curve" smooth="yes"/>
      <point x="286" y="308"/>
      <point x="305" y="340"/>
      <point x="305" y="360" type="curve" smooth="yes"/>
      <point x="305" y="378"/>
      <point x="284" y="392"/>
      <point x="254" y="392" type="curve" smooth="yes"/>
      <point x="212" y="392"/>
      <point x="165" y="363"/>
      <point x="130" y="324" type="curve"/>
      <point x="129" y="324"/>
      <point x="128" y="325"/>
      <point x="128" y="326" type="curve"/>
      <point x="130" y="358"/>
      <point x="131" y="394"/>
      <point x="131" y="401" type="curve"/>
      <point x="131" y="405"/>
      <point x="130" y="408"/>
      <point x="128" y="408" type="curve" smooth="yes"/>
      <point x="126" y="408"/>
      <point x="121" y="406"/>
      <point x="116" y="400" type="curve" smooth="yes"/>
      <point x="100" y="382"/>
      <point x="71" y="357"/>
      <point x="46" y="349" type="curve" smooth="yes"/>
      <point x="43" y="348"/>
      <point x="40" y="345"/>
      <point x="40" y="340" type="curve" smooth="yes"/>
      <point x="40" y="336"/>
      <point x="45" y="332"/>
      <point x="50" y="332" type="curve" smooth="yes"/>
      <point x="84" y="325"/>
      <point x="92" y="297"/>
      <point x="92" y="265" type="curve" smooth="yes"/>
      <point x="92" y="44" type="line" smooth="yes"/>
      <point x="92" y="27"/>
      <point x="79" y="20"/>
      <point x="53" y="15" type="curve" smooth="yes"/>
      <point x="38" y="13"/>
      <point x="30" y="11"/>
      <point x="30" y="5" type="curve" smooth="yes"/>
      <point x="30" y="0"/>
      <point x="35" y="-3"/>
    </contour>
  </outline>
</glyph>
<glyph name="s" format="1">
  <advance width="328"/>
  <unicode hex="0073"/>
  <outline>
    <contour>
      <point x="144" y="-14" type="curve" smooth="yes"/>
      <point x="230" y="-14"/>
      <point x="300" y="31"/>
      <point x="300" y="97" type="curve" smooth="yes"/>
      <point x="300" y="134"/>
      <point x="273" y="164"/>
      <point x="185" y="209" type="curve" smooth="yes"/>
      <point x="104" y="255"/>
      <point x="87" y="274"/>
      <point x="87" y="311" type="curve" smooth="yes"/>
      <point x="87" y="355"/>
      <point x="136" y="375"/>
      <point x="177" y="375" type="curve" smooth="yes"/>
      <point x="218" y="375"/>
      <point x="244" y="350"/>
      <point x="261" y="299" type="curve" smooth="yes"/>
      <point x="263" y="294"/>
      <point x="273" y="290"/>
      <point x="281" y="290" type="curve" smooth="yes"/>
      <point x="286" y="290"/>
      <point x="291" y="292"/>
      <point x="291" y="297" type="curve" smooth="yes"/>
      <point x="291" y="327"/>
      <point x="282" y="362"/>
      <point x="271" y="376" type="curve"/>
      <point x="258" y="385"/>
      <point x="230" y="394"/>
      <point x="188" y="394" type="curve" smooth="yes"/>
      <point x="100" y="394"/>
      <point x="48" y="350"/>
      <point x="48" y="297" type="curve" smooth="yes"/>
      <point x="48" y="257"/>
      <point x="74" y="227"/>
      <point x="162" y="178" type="curve" smooth="yes"/>
      <point x="237" y="136"/>
      <point x="258" y="119"/>
      <point x="258" y="80" type="curve" smooth="yes"/>
      <point x="258" y="34"/>
      <point x="213" y="4"/>
      <point x="167" y="4" type="curve" smooth="yes"/>
      <point x="121" y="4"/>
      <point x="72" y="31"/>
      <point x="54" y="97" type="curve"/>
      <point x="52" y="107"/>
      <point x="47" y="109"/>
      <point x="42" y="109" type="curve" smooth="yes"/>
      <point x="35" y="109"/>
      <point x="30" y="106"/>
      <point x="30" y="97" type="curve"/>
      <point x="31" y="75"/>
      <point x="34" y="34"/>
      <point x="40" y="20" type="curve"/>
      <point x="65" y="-2"/>
      <point x="103" y="-14"/>
    </contour>
  </outline>
</glyph>
<glyph name="w" format="1">
  <advance width="644"/>
  <unicode hex="0077"/>
  <outline>
    <contour>
      <point x="211" y="-23" type="curve" smooth="yes"/>
      <point x="214" y="-23"/>
      <point x="217" y="-20"/>
      <point x="219" y="-16" type="curve"/>
      <point x="311" y="244" type="line" smooth="yes"/>
      <point x="314" y="252"/>
      <point x="317" y="254"/>
      <point x="319" y="254" type="curve" smooth="yes"/>
      <point x="321" y="255"/>
      <point x="324" y="251"/>
      <point x="326" y="246" type="curve" smooth="yes"/>
      <point x="420" y="-16" type="line"/>
      <point x="421" y="-20"/>
      <point x="425" y="-23"/>
      <point x="428" y="-23" type="curve" smooth="yes"/>
      <point x="432" y="-23"/>
      <point x="436" y="-20"/>
      <point x="438" y="-16" type="curve"/>
      <point x="568" y="299" type="line" smooth="yes"/>
      <point x="585" y="342"/>
      <point x="604" y="363"/>
      <point x="628" y="367" type="curve"/>
      <point x="639" y="369"/>
      <point x="650" y="372"/>
      <point x="650" y="379" type="curve" smooth="yes"/>
      <point x="650" y="384"/>
      <point x="638" y="385"/>
      <point x="629" y="385" type="curve" smooth="yes"/>
      <point x="607" y="385"/>
      <point x="606" y="382"/>
      <point x="568" y="382" type="curve" smooth="yes"/>
      <point x="532" y="382"/>
      <point x="522" y="385"/>
      <point x="492" y="385" type="curve" smooth="yes"/>
      <point x="485" y="385"/>
      <point x="472" y="384"/>
      <point x="472" y="379" type="curve" smooth="yes"/>
      <point x="472" y="372"/>
      <point x="485" y="369"/>
      <point x="497" y="367" type="curve" smooth="yes"/>
      <point x="524" y="363"/>
      <point x="543" y="349"/>
      <point x="543" y="325" type="curve" smooth="yes"/>
      <point x="543" y="316"/>
      <point x="540" y="303"/>
      <point x="535" y="291" type="curve" smooth="yes"/>
      <point x="446" y="62" type="line" smooth="yes"/>
      <point x="443" y="55"/>
      <point x="440" y="52"/>
      <point x="437" y="52" type="curve" smooth="yes"/>
      <point x="435" y="52"/>
      <point x="432" y="56"/>
      <point x="429" y="63" type="curve" smooth="yes"/>
      <point x="351" y="293" type="line" smooth="yes"/>
      <point x="346" y="306"/>
      <point x="341" y="318"/>
      <point x="341" y="328" type="curve" smooth="yes"/>
      <point x="342" y="349"/>
      <point x="355" y="360"/>
      <point x="375" y="365" type="curve" smooth="yes"/>
      <point x="386" y="369"/>
      <point x="399" y="371"/>
      <point x="399" y="379" type="curve" smooth="yes"/>
      <point x="399" y="384"/>
      <point x="388" y="385"/>
      <point x="382" y="385" type="curve" smooth="yes"/>
      <point x="362" y="385"/>
      <point x="342" y="381"/>
      <point x="311" y="381" type="curve" smooth="yes"/>
      <point x="278" y="381"/>
      <point x="263" y="385"/>
      <point x="247" y="385" type="curve" smooth="yes"/>
      <point x="240" y="385"/>
      <point x="230" y="384"/>
      <point x="230" y="379" type="curve" smooth="yes"/>
      <point x="230" y="371"/>
      <point x="243" y="368"/>
      <point x="253" y="365" type="curve" smooth="yes"/>
      <point x="285" y="358"/>
      <point x="305" y="337"/>
      <point x="305" y="307" type="curve" smooth="yes"/>
      <point x="305" y="292"/>
      <point x="301" y="275"/>
      <point x="294" y="257" type="curve" smooth="yes"/>
      <point x="223" y="60" type="line" smooth="yes"/>
      <point x="222" y="56"/>
      <point x="220" y="56"/>
      <point x="218" y="56" type="curve" smooth="yes"/>
      <point x="216" y="56"/>
      <point x="214" y="57"/>
      <point x="213" y="60" type="curve" smooth="yes"/>
      <point x="125" y="303" type="line" smooth="yes"/>
      <point x="122" y="311"/>
      <point x="120" y="320"/>
      <point x="120" y="329" type="curve" smooth="yes"/>
      <point x="120" y="347"/>
      <point x="130" y="362"/>
      <point x="148" y="366" type="curve"/>
      <point x="159" y="369"/>
      <point x="172" y="372"/>
      <point x="172" y="379" type="curve" smooth="yes"/>
      <point x="172" y="384"/>
      <point x="159" y="385"/>
      <point x="155" y="385" type="curve" smooth="yes"/>
      <point x="130" y="385"/>
      <point x="108" y="381"/>
      <point x="85" y="381" type="curve" smooth="yes"/>
      <point x="62" y="381"/>
      <point x="45" y="385"/>
      <point x="23" y="385" type="curve" smooth="yes"/>
      <point x="17" y="385"/>
      <point x="5" y="384"/>
      <point x="5" y="379" type="curve" smooth="yes"/>
      <point x="5" y="372"/>
      <point x="18" y="369"/>
      <point x="29" y="366" type="curve"/>
      <point x="49" y="362"/>
      <point x="68" y="343"/>
      <point x="79" y="318" type="curve" smooth="yes"/>
      <point x="204" y="-16" type="line"/>
      <point x="205" y="-20"/>
      <point x="208" y="-23"/>
    </contour>
  </outline>
</glyph>
<glyph name="x" format="1">
  <advance width="446"/>
  <unicode hex="0078"/>
  <outline>
    <contour>
      <point x="31" y="-4" type="curve" smooth="yes"/>
      <point x="50" y="-4"/>
      <point x="62" y="1"/>
      <point x="100" y="1" type="curve" smooth="yes"/>
      <point x="117" y="1"/>
      <point x="137" y="-1"/>
      <point x="148" y="-2" type="curve" smooth="yes"/>
      <point x="154" y="-2"/>
      <point x="172" y="-2"/>
      <point x="172" y="4" type="curve" smooth="yes"/>
      <point x="172" y="12"/>
      <point x="159" y="15"/>
      <point x="148" y="17" type="curve"/>
      <point x="131" y="20"/>
      <point x="122" y="25"/>
      <point x="122" y="34" type="curve" smooth="yes"/>
      <point x="122" y="40"/>
      <point x="126" y="48"/>
      <point x="130" y="54" type="curve" smooth="yes"/>
      <point x="225" y="186" type="line" smooth="yes"/>
      <point x="227" y="187"/>
      <point x="230" y="187"/>
      <point x="232" y="186" type="curve" smooth="yes"/>
      <point x="322" y="59" type="line" smooth="yes"/>
      <point x="327" y="52"/>
      <point x="331" y="45"/>
      <point x="331" y="38" type="curve" smooth="yes"/>
      <point x="331" y="30"/>
      <point x="322" y="20"/>
      <point x="298" y="17" type="curve" smooth="yes"/>
      <point x="283" y="14"/>
      <point x="274" y="13"/>
      <point x="274" y="4" type="curve" smooth="yes"/>
      <point x="274" y="1"/>
      <point x="279" y="-2"/>
      <point x="292" y="-2" type="curve" smooth="yes"/>
      <point x="311" y="-2"/>
      <point x="332" y="-1"/>
      <point x="352" y="-1" type="curve" smooth="yes"/>
      <point x="393" y="-1"/>
      <point x="387" y="-4"/>
      <point x="420" y="-4" type="curve" smooth="yes"/>
      <point x="428" y="-4"/>
      <point x="441" y="-3"/>
      <point x="441" y="2" type="curve" smooth="yes"/>
      <point x="441" y="10"/>
      <point x="430" y="11"/>
      <point x="419" y="13" type="curve" smooth="yes"/>
      <point x="402" y="17"/>
      <point x="392" y="27"/>
      <point x="375" y="48" type="curve" smooth="yes"/>
      <point x="258" y="210" type="line" smooth="yes"/>
      <point x="255" y="215"/>
      <point x="256" y="220"/>
      <point x="259" y="224" type="curve" smooth="yes"/>
      <point x="331" y="321" type="line" smooth="yes"/>
      <point x="349" y="351"/>
      <point x="375" y="362"/>
      <point x="404" y="366" type="curve"/>
      <point x="415" y="368"/>
      <point x="428" y="371"/>
      <point x="428" y="379" type="curve" smooth="yes"/>
      <point x="428" y="384"/>
      <point x="415" y="385"/>
      <point x="407" y="385" type="curve" smooth="yes"/>
      <point x="389" y="385"/>
      <point x="381" y="381"/>
      <point x="342" y="381" type="curve" smooth="yes"/>
      <point x="326" y="381"/>
      <point x="304" y="383"/>
      <point x="294" y="383" type="curve" smooth="yes"/>
      <point x="288" y="383"/>
      <point x="270" y="384"/>
      <point x="270" y="377" type="curve" smooth="yes"/>
      <point x="270" y="370"/>
      <point x="282" y="368"/>
      <point x="293" y="366" type="curve"/>
      <point x="310" y="364"/>
      <point x="318" y="359"/>
      <point x="319" y="351" type="curve" smooth="yes"/>
      <point x="319" y="345"/>
      <point x="315" y="338"/>
      <point x="309" y="330" type="curve"/>
      <point x="237" y="232" type="line" smooth="yes"/>
      <point x="234" y="228"/>
      <point x="232" y="227"/>
      <point x="227" y="232" type="curve" smooth="yes"/>
      <point x="158" y="322" type="line"/>
      <point x="147" y="336"/>
      <point x="141" y="346"/>
      <point x="141" y="352" type="curve" smooth="yes"/>
      <point x="141" y="360"/>
      <point x="146" y="365"/>
      <point x="164" y="368" type="curve" smooth="yes"/>
      <point x="173" y="370"/>
      <point x="182" y="372"/>
      <point x="182" y="377" type="curve" smooth="yes"/>
      <point x="182" y="383"/>
      <point x="164" y="383"/>
      <point x="159" y="383" type="curve" smooth="yes"/>
      <point x="141" y="383"/>
      <point x="141" y="382"/>
      <point x="122" y="382" type="curve" smooth="yes"/>
      <point x="84" y="382"/>
      <point x="87" y="384"/>
      <point x="56" y="384" type="curve" smooth="yes"/>
      <point x="52" y="384"/>
      <point x="38" y="385"/>
      <point x="38" y="378" type="curve" smooth="yes"/>
      <point x="38" y="371"/>
      <point x="51" y="368"/>
      <point x="61" y="366" type="curve" smooth="yes"/>
      <point x="80" y="361"/>
      <point x="94" y="349"/>
      <point x="114" y="322" type="curve" smooth="yes"/>
      <point x="202" y="210" type="line" smooth="yes"/>
      <point x="208" y="203"/>
      <point x="208" y="199"/>
      <point x="202" y="191" type="curve"/>
      <point x="107" y="69" type="line" smooth="yes"/>
      <point x="76" y="30"/>
      <point x="64" y="20"/>
      <point x="35" y="15" type="curve" smooth="yes"/>
      <point x="23" y="13"/>
      <point x="10" y="10"/>
      <point x="10" y="2" type="curve" smooth="yes"/>
      <point x="10" y="-3"/>
      <point x="23" y="-4"/>
    </contour>
  </outline>
</glyph>
<glyph name="y" format="1">
  <advance width="420"/>
  <unicode hex="0079"/>
  <outline>
    <contour>
      <point x="50" y="-285" type="curve" smooth="yes"/>
      <point x="77" y="-285"/>
      <point x="96" y="-271"/>
      <point x="109" y="-244" type="curve"/>
      <point x="339" y="303" type="line"/>
      <point x="356" y="342"/>
      <point x="381" y="362"/>
      <point x="401" y="367" type="curve"/>
      <point x="418" y="371"/>
      <point x="425" y="374"/>
      <point x="425" y="379" type="curve" smooth="yes"/>
      <point x="425" y="384"/>
      <point x="415" y="385"/>
      <point x="404" y="385" type="curve" smooth="yes"/>
      <point x="385" y="385"/>
      <point x="379" y="382"/>
      <point x="344" y="382" type="curve" smooth="yes"/>
      <point x="308" y="382"/>
      <point x="292" y="385"/>
      <point x="277" y="385" type="curve" smooth="yes"/>
      <point x="267" y="385"/>
      <point x="256" y="385"/>
      <point x="256" y="379" type="curve" smooth="yes"/>
      <point x="256" y="374"/>
      <point x="260" y="373"/>
      <point x="279" y="369" type="curve" smooth="yes"/>
      <point x="303" y="364"/>
      <point x="314" y="353"/>
      <point x="314" y="329" type="curve" smooth="yes"/>
      <point x="314" y="318"/>
      <point x="310" y="302"/>
      <point x="306" y="289" type="curve"/>
      <point x="216" y="57" type="line" smooth="yes"/>
      <point x="215" y="57"/>
      <point x="215" y="56"/>
      <point x="214" y="56" type="curve" smooth="yes"/>
      <point x="214" y="56"/>
      <point x="214" y="56"/>
      <point x="213" y="58" type="curve" smooth="yes"/>
      <point x="121" y="301" type="line" smooth="yes"/>
      <point x="118" y="310"/>
      <point x="117" y="318"/>
      <point x="117" y="327" type="curve" smooth="yes"/>
      <point x="117" y="345"/>
      <point x="124" y="364"/>
      <point x="141" y="368" type="curve" smooth="yes"/>
      <point x="153" y="371"/>
      <point x="163" y="373"/>
      <point x="163" y="379" type="curve" smooth="yes"/>
      <point x="163" y="384"/>
      <point x="152" y="385"/>
      <point x="146" y="385" type="curve" smooth="yes"/>
      <point x="114" y="385"/>
      <point x="113" y="382"/>
      <point x="84" y="382" type="curve" smooth="yes"/>
      <point x="54" y="382"/>
      <point x="54" y="385"/>
      <point x="22" y="385" type="curve" smooth="yes"/>
      <point x="16" y="385"/>
      <point x="5" y="384"/>
      <point x="5" y="379" type="curve" smooth="yes"/>
      <point x="5" y="373"/>
      <point x="12" y="370"/>
      <point x="23" y="367" type="curve"/>
      <point x="43" y="362"/>
      <point x="61" y="346"/>
      <point x="77" y="308" type="curve" smooth="yes"/>
      <point x="186" y="42" type="line" smooth="yes"/>
      <point x="189" y="33"/>
      <point x="191" y="23"/>
      <point x="191" y="13" type="curve" smooth="yes"/>
      <point x="191" y="4"/>
      <point x="189" y="-4"/>
      <point x="186" y="-15" type="curve" smooth="yes"/>
      <point x="106" y="-189" type="line" smooth="yes"/>
      <point x="99" y="-202"/>
      <point x="87" y="-205"/>
      <point x="79" y="-205" type="curve" smooth="yes"/>
      <point x="68" y="-205"/>
      <point x="52" y="-199"/>
      <point x="37" y="-199" type="curve" smooth="yes"/>
      <point x="15" y="-199"/>
      <point x="3" y="-220"/>
      <point x="3" y="-244" type="curve" smooth="yes"/>
      <point x="3" y="-274"/>
      <point x="23" y="-285"/>
    </contour>
  </outline>
</glyph>
<glyph name="z" format="1">
  <advance width="353"/>
  <unicode hex="007A"/>
  <outline>
    <contour>
      <point x="40" y="-5" type="curve" smooth="yes"/>
      <point x="58" y="-5"/>
      <point x="94" y="0"/>
      <point x="123" y="0" type="curve" smooth="yes"/>
      <point x="217" y="0"/>
      <point x="280" y="-5"/>
      <point x="305" y="-5" type="curve" smooth="yes"/>
      <point x="312" y="-5"/>
      <point x="318" y="0"/>
      <point x="319" y="9" type="curve" smooth="yes"/>
      <point x="324" y="25"/>
      <point x="350" y="112"/>
      <point x="350" y="120" type="curve" smooth="yes"/>
      <point x="350" y="131"/>
      <point x="334" y="138"/>
      <point x="326" y="127" type="curve" smooth="yes"/>
      <point x="308" y="99"/>
      <point x="285" y="61"/>
      <point x="271" y="43" type="curve" smooth="yes"/>
      <point x="258" y="27"/>
      <point x="243" y="22"/>
      <point x="226" y="22" type="curve" smooth="yes"/>
      <point x="97" y="22" type="line" smooth="yes"/>
      <point x="87" y="22"/>
      <point x="81" y="27"/>
      <point x="87" y="37" type="curve" smooth="yes"/>
      <point x="292" y="324" type="line" smooth="yes"/>
      <point x="306" y="343"/>
      <point x="318" y="356"/>
      <point x="333" y="373" type="curve"/>
      <point x="336" y="377"/>
      <point x="331" y="385"/>
      <point x="326" y="385" type="curve" smooth="yes"/>
      <point x="271" y="383"/>
      <point x="220" y="382"/>
      <point x="157" y="382" type="curve" smooth="yes"/>
      <point x="149" y="382"/>
      <point x="137" y="381"/>
      <point x="123" y="381" type="curve" smooth="yes"/>
      <point x="107" y="381"/>
      <point x="89" y="382"/>
      <point x="84" y="387" type="curve" smooth="yes"/>
      <point x="79" y="392"/>
      <point x="73" y="396"/>
      <point x="71" y="396" type="curve" smooth="yes"/>
      <point x="66" y="396"/>
      <point x="55" y="388"/>
      <point x="55" y="378" type="curve" smooth="yes"/>
      <point x="55" y="353"/>
      <point x="42" y="302"/>
      <point x="36" y="284" type="curve" smooth="yes"/>
      <point x="31" y="272"/>
      <point x="50" y="265"/>
      <point x="58" y="274" type="curve" smooth="yes"/>
      <point x="72" y="292"/>
      <point x="86" y="326"/>
      <point x="101" y="342" type="curve" smooth="yes"/>
      <point x="108" y="350"/>
      <point x="124" y="362"/>
      <point x="144" y="361" type="curve" smooth="yes"/>
      <point x="258" y="359" type="line" smooth="yes"/>
      <point x="274" y="359"/>
      <point x="270" y="353"/>
      <point x="267" y="349" type="curve"/>
      <point x="199" y="253"/>
      <point x="130" y="157"/>
      <point x="64" y="67" type="curve" smooth="yes"/>
      <point x="49" y="49"/>
      <point x="26" y="17"/>
      <point x="26" y="12" type="curve" smooth="yes"/>
      <point x="26" y="7"/>
      <point x="35" y="-5"/>
    </contour>
  </outline>
</glyph>
<glyph name="braceleft" format="1">
  <advance width="387"/>
  <unicode hex="007B"/>
  <outline>
    <contour>
      <point x="345" y="-152" type="curve" smooth="yes"/>
      <point x="354" y="-153"/>
      <point x="363" y="-149"/>
      <point x="363" y="-143" type="curve" smooth="yes"/>
      <point x="363" y="-135"/>
      <point x="342" y="-135"/>
      <point x="327" y="-134" type="curve" smooth="yes"/>
      <point x="236" y="-125"/>
      <point x="188" y="-116"/>
      <point x="188" y="-26" type="curve" smooth="yes"/>
      <point x="188" y="42"/>
      <point x="201" y="89"/>
      <point x="201" y="147" type="curve" smooth="yes"/>
      <point x="201" y="221"/>
      <point x="162" y="264"/>
      <point x="102" y="279" type="curve"/>
      <point x="100" y="280"/>
      <point x="97" y="281"/>
      <point x="101" y="283" type="curve"/>
      <point x="159" y="299"/>
      <point x="201" y="350"/>
      <point x="201" y="414" type="curve" smooth="yes"/>
      <point x="201" y="472"/>
      <point x="188" y="519"/>
      <point x="188" y="587" type="curve" smooth="yes"/>
      <point x="188" y="677"/>
      <point x="240" y="687"/>
      <point x="330" y="695" type="curve" smooth="yes"/>
      <point x="345" y="696"/>
      <point x="366" y="697"/>
      <point x="366" y="705" type="curve" smooth="yes"/>
      <point x="366" y="711"/>
      <point x="357" y="715"/>
      <point x="345" y="715" type="curve" smooth="yes"/>
      <point x="250" y="711"/>
      <point x="146" y="676"/>
      <point x="146" y="582" type="curve" smooth="yes"/>
      <point x="146" y="512"/>
      <point x="159" y="466"/>
      <point x="159" y="404" type="curve" smooth="yes"/>
      <point x="159" y="337"/>
      <point x="138" y="306"/>
      <point x="73" y="295" type="curve" smooth="yes"/>
      <point x="58" y="293"/>
      <point x="52" y="286"/>
      <point x="52" y="282" type="curve" smooth="yes"/>
      <point x="52" y="277"/>
      <point x="62" y="273"/>
      <point x="71" y="271" type="curve" smooth="yes"/>
      <point x="128" y="257"/>
      <point x="159" y="231"/>
      <point x="159" y="157" type="curve" smooth="yes"/>
      <point x="159" y="95"/>
      <point x="146" y="49"/>
      <point x="146" y="-21" type="curve" smooth="yes"/>
      <point x="146" y="-115"/>
      <point x="247" y="-146"/>
    </contour>
  </outline>
</glyph>
